<mxfile host="Electron" agent="Mozilla/5.0 (Windows NT 10.0; Win64; x64) AppleWebKit/537.36 (KHTML, like Gecko) draw.io/28.1.2 Chrome/138.0.7204.243 Electron/37.4.0 Safari/537.36" version="28.1.2">
  <diagram id="iJE1tRib4P6n_QMzltzi" name="New ERD">
    <mxGraphModel dx="5439" dy="3440" grid="0" gridSize="10" guides="1" tooltips="1" connect="0" arrows="1" fold="1" page="0" pageScale="1" pageWidth="850" pageHeight="1100" background="light-dark(#FFFFFF,#990000)" math="0" shadow="0">
      <root>
        <mxCell id="0" />
        <mxCell id="1" parent="0" />
        <mxCell id="aJTqVLSHrdKn0ntpWEcu-1" value="&lt;b style=&quot;font-weight:normal;&quot; id=&quot;docs-internal-guid-89bb1bb1-7fff-312c-d509-fa12193e23ce&quot;&gt;&lt;span style=&quot;font-size:24pt;font-family:Arial,sans-serif;color:#ff0000;background-color:transparent;font-weight:700;font-style:normal;font-variant:normal;text-decoration:underline;-webkit-text-decoration-skip:none;text-decoration-skip-ink:none;vertical-align:baseline;white-space:pre;white-space:pre-wrap;&quot;&gt;&lt;span style=&quot;border:none;display:inline-block;overflow:hidden;width:521px;height:288px;&quot;&gt;&lt;img src=&quot;data:image/png;base64,iVBORw0KGgoAAAANSUhEUgAAANIAAAB0CAYAAADw3GyxAAAQAElEQVR4AexdB4AUxdKuuXwkyYJkeYqCqAgioGBAH+k9kkpSyVF/QcmZA0T0DnyCZEEkKEoUkGAkZxAQkCggKCoSjnDHAcfdX1/v9mzv3Oze7t4scMfA1nR3dXV1T13XVHdPd03ItWvXUm2wZWD3gYz1gRCy/9kSsCWQYQnYipRhEdoMbAkQ2Ypk9wJbAhZIwFYkC4Ros7gtJXBTG2Ur0k0Vt11ZVpWArUhZ9S9r39dNlYCtSDdV3HZlWVUCtiJl1b+sfV83VQK2It1Ucd/plWXd+7dckRJOnqD1PbrTonp1aWa1avRlzedoa/++dHbnT1lXivad3fESsFSRDs+eTQuaNqMjGzfRhXPnKSU1la4lXqEza9fQlq7/RwfGj6PU5GSy/9kSyGoSsEyR9kyZTBsmjBfKowopu6yBleronM9oT+x7arYdtyWQJSQgu3mGbuby77/ThunT6Tori8oolBNRGl+U3+/Ll9E/mzcpGDtqSyDzS8ASRfpp3EeUwrK4zqApipPDA/dfZ89iSvt3W0jAboQlEvDQ1f3j/cfPP+sFktgqQZfC+BLJoGcokQv7f6HUFKiegrSjtgQysQQsUaSLF+J1EdzgWKqWStk9KBFn042rVymRh4OI22BLICtIwBJFypYtu5sssC4X7kWRtJAQynbPPW5l7IQtgcwsAUsUqWCpUm4yiCCNrqS6odwS2YuXIC0szA1nJ2wJZGYJWKJIFbu8rssA8yIYoyRWJE+zoJIvvazT25G0ErAxmU8ClihS/goVqOyTT4q7D2drJCJ8SWBl4sDtl+fhR6h4w0ZuODthSyCzS8ASRYIQarw7kgoVK6qoEdE1ViTMl5APyF22HFWIGYaoDbYEspQELFOkkIgIajx3Pj09YADlzJVLF1IiK1P03XfTfe06UNVJUyiqYEE9z47YEsgqErBMkaRAitf7DzVc+Q21+HEV1ZswkV5cvpKeXfAV3demLWG1TtLZoS2BrCQByxVJCic0KoryPvoohd91l0Rl5tBuuy0BrxIImiJ5rdXOtCWQxSRgiSItebIqfVrVBUtfbEwHZs7IYqKyb8eWgGcJWKJI2Fen7mQ4e+pP2jxxEs2sVpXWdHvTc+12ji2BLCIBSxQJssjFnDREFEjhFbtjW7fTl888Qyn2gT5FMnY0q0mAu781t4SzR56OTVy5epXm1KhOyVeuWFOZ4GJfbAncPhKwTJFwS9FskiIYEDfCdbZOXz5fk27YymQUjZ3OAhKwVJEgD7MhHvCAG6mptLRFM0RtsCWQpSRguSKBIZTJTErXWJFO/fU3/f7tN2bZNs6WQKaVAPq95Y3HDnCjrwaNh3zXnDWtHvmuM2YHtgSyhgSsVSRFJjmZM/8EhnWIrrA1Egm+XEy6SvEH9nPM/tkSyBoSkH3d8ruB8sghXoqWKpyjqJX8umihmrTjtgQytQSCpkiQClbwIrmGK7xih7QKp/fuVZN23JZAppYAd/Pgth8vZc0OlZ879WdwK77V3DGUlRDktly+fJn27fuFLl26FOSabPaeJBBURcJZJBw3j8ZKg6EFl5KSaHPv3rRjQH/hG3zbwAG0jeM69O/HeCf060tbnbClbx/SoU9v2uKEzb17MT9AT9rcywGbOFz/djfaxmU39OxBwYBdI0cY7syRXPFsDVpevRqd+uF7B8LkumPHDlLBhCRd1NSPp9JLL75MPbr3oNe7vJEu/e1OcPr0aXEvb/5fVzp16tTt09x0WhI0RYJbLnVIZ3TPBQU7tmkDHV23hn5bv44OrF5FP61e7YI1a2inhLVraacTdq1bRzqsX0+7nLB7wwZywEbavXEj7WM4zLgjm7fSvtVr6MiGjXRoo6SxLjy6alU6IvacvW7tOhrQf6CAlAD8/P3www80f/4CvYKQkKD9OfU6rIokJCTQzz//LODPP12jk7Vr1grrevjwYVq9arVV1QWdT9AkD2uktj6ENApXEYZ4VIhGuRmwdG7I8isZytTRPKQK5TEl/zjl+GGapqVqlIOto7d2OKgd1zCmrfB8Tfrv4MHUICaGqjVuRLlDQxyZt8H1xx9+1FsxJGYwffTRWD19u0eOHztOvXv1EbB0yVK9uWXLlaWIiAjKkSM7PV75ccos/4LSK65yr4W/BqMQorhjakakkmY9oux8ycVEZvMqhTRNlIsQFCiMtYd/afIlAnnhrNTZuS1QOok3hiXvvZc6rN9AVYePoGJ16lKRWrXpUf7Dv7jka8qfLYo5EGXjSsNEzFj65qT/+eeMqCgsLIyqVKlCue5yHfEXGZnwUrZsWZo5awbNmDmD7rvvvkxzB5YrEusQGa2RKg10YDVtFg+DMoXCepjlpsVFMSqCNYR/HPPtx0aLolgJoAysD26FihYvRnU/+5zMjsZH5s1LTX5YTfnCQimUyxvLujEKILFnz16aPWu2gLNnztKMGTNp4IBBNHHCRIqPjxccsbgAGpkG8rPZn9GmTa6PE1zFRuHP59CIEe/S4EFDaOrUaQR+oJWwZMkSUc/yZctpLQ+dBw0aTBhuYtEC/AFozxoeGg8f9g7FDIkR+aksvC+/+JJAPypuFGEYJnnK8MSJEzRx4iTq26cvxcWOou3bt8ssMXT75ptv9fQv+/fT5yxvII4dO0ZfL/2aFi1cRAcOHARKh107d9HYMWOFPEaP/oBUiwyiA/sPiPtBuzHX+ox5Qnbjxo2nM2ccDx3QBQNCrGYKJUrxwhQdz9fhWwQrVB5WqGgUMuEZxbhI1p5UBo76/YPSEw/3srFCRCl11JoyNV1e5V5+KV2aQAj27tlDs1kpAL169aY5rAzohIsXL6FePXsTOrHo6Exz8eJFUUVycrIos2njZpE+f/48derYWSghFGPr1q00f958at++g+jEgogvSxYvFeWmT/9UdPZtW7fR2bNnxeof6gf874P/0ciR79EGnm9u3ryF4lhxxnBnRhnQf//9D9T97R6EjsssxQ9KgvoXf7WYdu3aTZjLoUMvWOCYz+3bt4++/dalSFAAdHoUPnr0qGgT6j7ACgYcYO7cedS3bz9avnyFUMrvvv2OYmPj6D1uG/IB+w+wIrFcULZvn340a+YsQQvFRBtv3MDMHZTWg6WKBNdbcAyZXjMjueP6WjH6dzQr1F0MEU7GkRxGsfIEqkBc3O0HhQphhcL8KXtoKEX64GeiSM0XyPEPpR0xq69XrlyhBg0bUPbsDpfQJ0+epN27f6acOXPSq6++Qrmc3powtEO6arUqognolH/99ZeIP/DgA/TMM0+LOPjBsomEcoFiXr+Ob4lQGiuMhYBatWvRPU4X09euXaOVK1ZSzZo1qThbbuJ/KLty5TccI7pw4QJ9+L8PhcLfxXJE+xEic8anMwnWtFy5cvTvf/8bKAFo4yuvtBBxswvuZfon00VWdHQ0/bf+fykvjwyAWM3WcufOnYi6AeqpX7++kBUyoOhQfMSDAb72Z5/qTvRmihQO6HoY4iUjouC9RdkwUW5ubT5KpRAokTfiAPOYLeXIns2n0tlLlCRuDtNqDMH5de7SmbowtGnbRq/gOA99cuTIQa++9qq7InG6atWqhKcuOjoKoLONGhVHfXn5v1q1qkDRkSNH6NChwyKuXnrz64PlK5ZRgwb1VTQ9Vf0pevvttwQPmVG+fHnq1bsnDRkyRKLot+O/iTiGlFAKKHZPfv2A9tdmRUQmlPD48eNUjhcUatVyKVLZBx+kFl4U6RtWUlhi8OjUqSO98cbrNHjIYCQFLPt6uQjVS7t2ben1N7pQ5y6ddPQxrltPWBxx9AULmMISOZ5pvjPTfOyDocwympeHI3lsjjlNPkYgZLTlv5TERJ94ntm6xbntyY+ngU+cXUTh4eEicffdd4sQFzzxEXqC+PPxhKEe8h955BGCtUL8sYoVEQg4e9Z9vhAVFUXP1XyOQkyWz8N5IQOFChTIj0BAdl5RQ6RAgQIIBMhhZsGCBYWSw2rA0sE67ue5iyDiy5UrSXz17/fPP//oBSpWctzHAw+UIVgnZKj5SAMCkR3KBQqWKBK6EuZG/jQigZWC9cFrETQuiumiWIkQl8TQP5zGhUKpviJkvr8h+GEeBn7ZU1Por9Wr02VxdMH8dGkCIZBP3kDKosz5+PMIBERHR4kQl2zZXJb2/DkXDfKMoLaBxW/MJn1IDcE5c9Uya9aspdat2lDs+7FinoL3RU4yIjOGeqZ55Hx8vJ4RzUM7mZBD3nPnzknULQvV/hlwIzBEgzL5yiCZh2cpXojRKFgfWKFQL4KHIuZh4rsYEPfC0jSLi/FyO1F+Lozd6hwIun2jY0Xo6XL+l330285dnrJvKV5VmHier8jGXOe5jYxHRGKWKVOWhoT5zOjRownzsXz581H3Hm+7zYfI12GI0qyoSNcD4UL8BT0Hw0gkVOVC+lYA+lKG64VV8HUlDg8xdceDWjnyIlhxoEBhHKp53uKoOy9rQXZmwD9vpCKPSQmKIywQF+CfwMvLVV71WtfyFbrIb9clToZ/rFxB33RoT671H2NpSXlrQnUYeOzoMb0RWGKWifz58smo5eH27Tvo2lXHybPWrVsLJSpUyDU0Na0wHeXKzwopyx3lOSLiWATB0BHxAsqwE+lbAZYoEhqeg/tTGCJeAFYLQzojCRclKFA2HsKF+6FAKh/wyM53A4WCYql5Mg6Fh/XKx5qEoRzKyDxjeImXYde3aUk/NmpAO/r0og3t2tDKms/Q7neGia8Ruu4Vd2UsfevSobzq+PDDD4sGoLNNn/4p4f3LBn65DCQWKrBKhngwQNWJq0mO+dBpZY4jh3aYl8n6//7rb0rkuSkWSiRODStXrqwnP5n2iVgsmTb1Ex2n5uvImxzhrmddjZi3aF7YpfCQzvUkdxBCcWCBEDowGbuyjhCUBSt8iIMbFCsv3ymGgYgD5ysk/XOa/t6wni4cPEAp/JIT5cAXdeTkm9U0ZgzkbQSNX2ystwYvTvH+BcvBQNarV5fUTgyclQAl1jQWDDPFi9DateqI5XJOit/lhMsivKfIPSQXBPCOqnGjF+lGsrF3CFLCAkMp58fs8HDo+mZXWr9+vcjEsK5OnToifisvlvYCdDAMr8xuCLJVFyRQcfN1G6jhuo1Ub/0mqpsORBYqRIm8quQrJIeGUHR4CL3AFqT5xk1Uf0P6daTXBmN+Q+b5H+UNvdl93wpclSpP0FtvddNXtdAGTdMICvZay9eQDBoUK1aMmrdorvPXNI2ef76mnj5y+FcRhwK0atVSxOUlhP9mMm4Mhw6LofK87K7i8R4Ly/sRkREq+pbE0Z8trRhPfAybjEwT8ZJGQTqeWQoinWhYRARh4QEDKX9AIy0dzrcuu137djRv/lwBDzzwgGgI3qes/GYFAeS7n8cfryTSwLVq3UrQ4TJ12scC/9XiRUi6Qe06tQXfKR9PprEfjaVFXy2kjh076MvhIPZUvkiRIoIv6uvTtzdIKU+ePDoOnRpIbC4FDWDURvtGNQAAEABJREFU6DigBLRkZUWdcfwOC/eH90mgAXTo2F7Q4PLSyy/RmLEfUmzc+zRx0gTRNrzoBR2gYaOGIBOAZfW4UbH0+ZzP6MMxHxL2402eMplK/6u0yMelEdOjHADL+cA99NBDers7d+4EVFDAckVCK/GOB/MRxAEY0mHXA+IS+EEloz6FUIdAhn8pKebDBZ8qDTIRdiioYHV1eIdUvHhxuv/++4I6nDNrN+osX/4hwpzMLF/iypQpQxgOyqGbxHsK8ZIZ75CgWJqGXuGJ8ubig6JIuAUsPoA5btXsE5ig8QdSmRj8/FnNS2ErqIVgwMmF7Z8tgSBKAH0zKOzBGPOlJF5gMKtA83PIpTmZ+GOVklDGwqdWKlu380f2054p42ht77doRcsWtOrNLqjFhjtcAujvQRMBhnMRfiqMp8bAIiEPDfZFmW6wNcK2JbncirKBQmpqCp34YSUtfrEhff3Ka7Rr2qf025r1dObgIbrsfK8RKG+7XNaQAPplUO4EM5PLKUTcnylKmhOLavJFkYQ1sqC+iyeO0XftW9Oa/gPpksFhCzbSpib7u8OQiMj+l9UkEDRFghJJYYWmammOmWdEt1DWmzLBGuGUrqw/0PDokkW0tFkz+nvvL6YswtAQ0xwbeadJICiKhC1AakfGsCyK5ypWVgZF8tSPUX9G/5BHvlpAG999l1I8HAbDvQAyWo9dPmtIwPK+wKM5Uq2RFNMN1qbsrEwyrUQlyq8QSgRlMhZK5rGkY6eXMcf39Pn9+2hL7Ps8veJGeyhmWyMPgrlD0ZYrEpTIU/eDMuEdk1WyhiJBoVR+YoFBRQQQX9O3F1siPBLMC6NOzI/Mc33D4jg4jhekB9gS4xtH36iwKxvbdgD9+vb3rZBFVI0aNibU26F9R4s43j5sLFUkdGKA19vj+VKkVwL/MqFMsgTmRoFaI8lj79RJdOmv0zJpGlphjbZu2UrSHZW3UHVVZdoYG3lbSMAyRYIVgjXy5a7CeUkcT3VfaNOjgSLJm7BibnRw3jyvVaLdViiS10rszEwnAdkHM9xwKJHnwZA7e9Bh8cEdG3gKymTF3OjsL3spUTk4ZtYiq5So8hOVxR4z7DMDSEcmqPP92Pf0PBzZBs6G21sCligSTsj6aw1S2SpZJRpsG/K3frO6D37+uRnaDZfRuZFkhk2g2GMmAfviZJ7EISxcuLBEiwNzMz6dQYMGDqIB/QfQ5EmTyeyYNdxvwe9bn959KS52FG3cuEnnoUaw23rHjp9oxDsjaPiwd2jbtu169uXLCbqPOLjUgluvYcOGC1qU0QmdEfiS+HjKVIKvu3dHjKR5c+d5XaxxFhMBTrrivmJihhLqgBstOEoRmcoF9eL4Ou4d7sV+PfKr3saLFy7Sli1b9PSvvx4VJXHGCX7uAGiTQAbhYoki4SmtblL1pZ3JAR7gM+ONeRmUySzPH9y5Qwe9kuM+MbTzShSkTHSsvn370Zw5X4gOj061aNFX1LlzF4KrKVktcHAICb9vu3fvJviUGzZ0GKFzShoZwm0wlHLduvXCbx3iKIP8hITLBP9wgDEfjiE4mty4YSOBduCAgXTw4EGQCUD9Xd/sRvBbB5dXcDY5bdonNHjwEN0RiyA0ucBpSve3u4v72rxpM6EOOEzp2aMXQZllkR3bdxDq/fHHVYR7nzp1Gg0f/o7exgsXLxAcv6C9gDWrV4uihw8d1ml+3rNH4IJxsUSR0DCzoxPAm0GIRoTvyZrlKTifo3ADxqveFOFzCXPCJMXHgRkFFMkMfzNwS5cupV9++UVUVbHiY/T00zVEHE/iL1i5kEBc+n/Drmu41pJDxrlsIbBSCDoJZ8+epRo1qpN6YnbJ4qUyWw+xcojjDaVL3ytwqfwQhKNGkeDL+HET6O+//+YY0XPPPUv333+/iEOpli9fLuKeLrNnfUbSesDX96MVHhWkhw4doi/mzBFxXNB+1Is4vCO98MLzwj8E0hKqVK0io6zoh0R8r/IdLhxHEcggXCxTpChWDl872lX+Q1h1L1dSibCnD/xwXglhoHAjxLM4MKTjWwyUdYbLzZ/n8FJaokQJGvHuCOrXvx9VqFBB8IW3U3QyWAJYLiA7dupAXV7vQl27vYkkwYnjwYOOziUQfClfvjzB511cXKx+WvXoUcfBO87Wfxhiwo9dLNNpmkMKJ0+cFPmwahhSIVG9+lPUu09vGv3BKJJOIed8/gWyTAHWSCoajl0MHz6MRo58l6TCLlmyVDhRwfBVWspSpUrRe++PpB49e1B1fgiojFEn8oHb7/y06t59+5AU8GS1J0UYjIvnnhNAbb68I4I1wu40598jgFrci8AaSQysUqRMBBAmJl2jFA8N8/UhEUC16RbBEEdak9y5c4tPoeD9U2SkwwZDeeAI5AxbGMmsePESIgqn9HDWCMiXL6/AyUtERLiI4sh3/vwOv3UXL14SOPUirRrcX8HSIQ+dG+GJkycQCKhY0eFzDvwefsThNwLtTkhIEPnGy6lTf+pDP1lW0zSq8NhjghT3BX8Op/92vY6o9Hgl0jSHMkdGOO5fEDsvlZ1fsIADlhOs7Lt37RY5RYsWJXg1EokgXCxVJFil0HQamWSxNcLmWLXKkAzyT6SQNAc/oPyWCkptsA/xeMVXHZ7M8r0TfHHL4pdYAS5evCiTFBbm+EvgIBy8sgKMX3dIwZPHWULTHJ0zJQVrqk6kSaBp7nTnzp7TqXB8XCayKf7nMISUeDWUyghclEKvlv3nzBnhixw0gOgol2susz91pccfB5mA7777Tlg0JKSCIR4MsLx/ZPPCEX8DOQzz92Ycfz73Uqo1kjnoG25WCZXKTB9CHilSksGhictjkA8MgkCikaZzzZMnD5V/uHwaCGfrAksgCTWljMQFI0S9ki92Tci4Gqorku54h7IDl3TlCoI0AE+voc6HAjJTFO0x+9OWLfug7qsCX9lAGQDmXwiDBV66vVmV6eOw6OASj4seHfSKIgRXjm8xlFcp4UjFaI1kvptVCqDOZO6Eyc6/ksZMMT/i4Jb98uTNo9cNq4I5jRFw9BrWRxImOjsmPuUy2/mZGPj9lvlWhfnyunzkHf/tN52tOszMl89FoxNwRA4nOUq/eSibv0B+wsMDNAB1mIe0EUJDQ+kx59BQDimhyJgPGmmtTFuuSGhctAlXjQdM6qBB484K2kDBzBpJXrBKrgGAxPoXXhFDPI38Xdb3rxbfqOE9VXa6bdu2ET6DgsUFrHbhvQ1WuMAJvgwQArDwgBBuq7AcDLh8yeEKC3ir4KHyD+n+IOC8H0vYf/z+B+38aaeoAtYz0oNnVyycFHD6D8cwdcWKlYT3UdIHH76AAUcseJcmh43r1q3T7//06X9EHcaLcXUO8y8ok5HOyrRJl884eyw6qIw1ZmluuDkjgB+skaqUZiw0aJNZhh+4JLZKmB/5USRopN26dRW8oUBvvfU21aldl954/Q3CEvOE8RNEHpaF5VI29uhhgyg+9oVMuK5Cp0bcSsDiQ916dQXLpKQkiokZSu3atSc512rSpInIM7vAerzo9MEH+jEfjqGmTZoJZQL9y01eJk3ThKL+2/n1Cgwf5f1jwQV0RqjECxIqLtjDOtSl9nekLQN1rpSipbI9soY1hnjerJGsBYoWLRMBhhjSJRIeAwEysLAYOsOAgQMI1kllCy9EzRU/ckOGDBafTVFp4KlnSMwQQsdV8VbF27ZtQw0bNSRNc8kK7YTfb6N1MNZZv0F9atW6FakWA3O99u3bUW3n52BQpjXT4HMwiAMwXJQPDaRVgPUuWaqkjqpaxfV+SUdaHAmaImGuBLHiiY53PcZ2I8+I8yXtizWSfFJhlQKYI6E82gf1x25yAHDBhEGDB1Js3PsCNA21p60N72nmzvuSpnw8WdD978MPhJ+3J554QifGfGL0B6OF37e4UXE0Y+anwncchkggwjBL1oN3TcAB4L8O+HfeGY6kmJcgDXit5asChwsUErj+/B4LaQCUAD7jFn21kMZ+NIbbN4XQTvVjYqAbP2EcfTJ9Gg0dFoOkgBB+d9e8eTNauHABjR8/jiZNmkgLFy0g+LzTNJccMLQbNXqUKA9feLivuwsWFDxwMXqPLVyoMNDiY2i+LXsL8oAvQVMkiABW6bpltogEJ1+skZQGrBcFqEjhXJsoz8xglWDhOBq034MPPij8u+Hlp7dK0GmLFy8uaFEGT28zeiw+lOf5i+pUH3TouKgDIF9eAg+rBVy5h8ohSXD+iDQAcxmB5AusAnBm1gCdGbsaMIxEO5nc7Yc5jwS3DE7AWyqcPcKSeLonvKDFuyW0NTEhkXbu2sUliXBPsEIiwRcsXGzfvp1jRJWVh4xABOkSNEVCe/ES87rsjUCooKkJ3+JQIk/szDiIBxo/8czy0sXxcFTSoM4ECqDBkoEdZlgC2GuHz3Z27tRFHA5s0qQpYUsUGDdoUJ80zfH3GT36A+rUsbPYyQHr27hxI5AEHYKqSEn8GMcQz4q7gJiS0KP9YJbMVsUPciJUQkSqNeKk+CXz1coFE2Zn//yQQImSJcS7M7UIrGbTZk2pHc+nVLyMY7FCfSUg8cEIQ6xgGqZ8DU7yu8adHp0vhHuns3/KLBGa4USGlwuGil6y3bIwN1MdsLhlppPQFGukkibxveCeVJwdvzkSwNAtLi5WzKFieS45fsJ4WrBwPrVp09ptoaJ2rVoCh3kUvmV7c1pH/LLEgpqyFSmahovqphjL4WkIuFOmxXnGsF4SrFuoZxK3nEB2l2vcpjC2YqjLjZmSwBDPW75CakczKgGT8iV5NQ5ztNKl79U32qpkmOPBSmEepWmamhXUeIgV3HPe69heL3lhCMajOpmkUO6gxlsypnViDxFJ74tVgvwCXWnDkreHJgg07guLDyJhX2wJOCVgiSKpFglPayxRO/mLADhYE5EI8AIeKAo+6e19C3RjLDZ64ssZqMcbQEkB3mjsvDtLApYoUqGnn9GlhndGstPrSI7AKnHg+kkT48L4HPNmlWCNPO3BS6+CG364H4ZVgnVKj6edf2dIwBJFylm6NOWvWInQsTCs8yQ6WBNPef7go1gJsbRuLMNoSgzwvRF4XfXgVRV5RsDD4jIPWY14f9J//HGKVPCnbEZpN23aRO+9975+OjWj/O708pYoEoRYpHYdwkodOhjSZhCewY6n8jRbwEjl1TZv9avlzeJh4eFmaI84WL7rHjZkeiykZMybO5fatW0n4NSpP5Sc4EZxUHBozDBavWo1xcXF+VWZTWwuAesUqU5duq9+fV5YMK8IWHRyWBPEtQwqFfioO7NxI8a5GerxF66nan4VCfWL+uYTt2rZWrzAxGZQWXuOHNkp1125RLKosuI6dsxYQYvNroEcuYBfBZQFYNe5qOAOuaD/WXar5fv0o+LOLSaemEYEqEBm3Vu1SjfYGnmq0x+8P++JoEQhV6/6w/62oZ0+/RPCd1779O1927QpMzfEUkWCIBWZ908AAAk1SURBVJ6aMpWK/qu0R3VRrRLofQWUM9JGsnbBKmGBAYscxny/085KrrJVYtbpFo/md07pEvlJsGfPXt03Gw7lzZgxkwYOGETYHhMfH+/GDUcPFi5cRDExQwmutODGSh5mw3EDHOhLSLgsyuCIA9LHjx8X6UVcbuuWLfTdd9+L9NdLv6bDh4+IOC44XSr94c2fN1+06atFXyFLANxigR8AdWGYKM8ggWDtmnUEl2CIA1J57rpwwUKCD72+ffrSmA/H0IkTJ5CVJcByRYJUnp05mx5v08bj295wVjN0ftD6Cp46NqxSssUdOoUbhY3jHHj8YQk+3GNu4Bl79+whHMID9OrVm+Z8PoewAXPx4iXUq2dvQocE9+TkZOrRvSdNmTyFcJgOzh1nzZxF7dt1EG6qsKkTPDAfAj2cMCL923HHKVbEASuWr0A2LRWKdFjEcVnO+E0bNyJK86BIsz+jRaoi/fCj3k4o6apVq2nnzp2CHhccLPz22+8QFTDuo/E0ZcrHwi/erl27CYf44Hvi1KlTIj+zX4KiSBBKmQ4dqcaggZQzKhLJNBCuWVO1UDCnJUlTSQYQ2A7krXgwrJGxPviTw45ouZP65MmTtIcVDXTLli2n/fv3I0o4q/TUU0+JOLz2wOMpfCngIB/2oyEDPJC+K3duJNPA/WXuJ3VfGo60Fy1WLA2dJ0Spe0tR4cKF9GzsGEfbgYCVXbZsGaJiO0/Roo6dMPHx8fTJtOkCn9kv1vRmD1IoVqceNfj2e6reswcVvKcwhYte7yBO66vHgfd0Dc/pmBwb86+wEkX4a96MTDykeTRimgNLBItkmmkhsnOXzuKMDkLJ9sQJhz85HBWQuO7d36b+A/oJXwVQlujoKIILrbi4WML5JNDBlRbSjz76CJJpoEeP7lRFcbDY7a2u1LSp59OtRgatW7eiOnUdJ2WRhzNMOKOE+Nwvv0RAmqbR5MmT6OOpU3SfdFiUwBBWEGTiS1AVCXLRwsKoZOOXqNb8hdR07Xpqwk+mepMnU7WBA5HtM0QWyJ+GFu+s5OIA5ktpCDKI8GSVboY1QtOlP4OCBQsgKUC6sJJPdSAxxFu9eg0NiRnMy9mx1LNXT6BvGzh58nfRFli8s+fOCqtawOlHDxl/3MSlf9QXDAi6IqmN1kJDKTJPXspb/mEq9kIt8udfVMG705DDGklkoKuBsrwjZPPmiOhX41wJ1girdTqBxRE5B1LZasowONXpd65Ondq6R1LMM+BcvlnT5oS5jVr2dohjuIl2wL8d5kUALJIABzh/7jyCTA0hmaX1RWrVdmsqlCjFDUMUpQwdDVk+JtMyuEoa/3cVv1nWyFWjeSw6OprGjB1D8HcgT5Ri9QzvgrCCZl7q1mA1TRMV4wQthp5GyJkrp8jPzJdMo0h3lXmAIp0+1KBAUCSj4MPdurwxN/A0PluD0hF88c0aMeFN+GEBAf4Ovpz7Bb3W8jXSNEeHnTd/vqW14yg3GGKlECHAWRWi6QKGdCCC8mOeZgTphw40mRUyjSJBwEX/8x8EBCVKOwgTWRm0SuZcr5HG/4luF2uEO23Tuq3YhdCRV0fhsQeH2O4pcg+yKOFygghxQedFiCVqWCzEPUF0VLSepQ63sHCBDAzNsMiBd1FHjx0Dyg2iFXfCannpGwJDPCx7y0LY74elfZnOzGGmUiQsWmg8pMEigyehZ8QqmauRo6Yb/JL2dhLWU9Udy91YxXu9yxvCxx0cM6K1FSo8ikAADsIhgvdIjRo2JrxoRdoMJC3y4HgS31VCXDrERxz+EOA3wWylrWSpUiARMH78BNEmJDp0bE9wboI4XsRiCxFgaMwwio2NI7QNeZkZbqe+ka4cI3mlpzRPqMPSobRql7laTTgnYJk4cPuFhN6awV5LHspJN1xHjx7Vd3FXrFSRunTporexRYvmbr7wvPm2e/bZZ+he5ZCmpIUDEezPk0zFXKd8eZnUQ3gtqly5sp6W5QsVKkSjRsURQj2TIxiaNmvalOCkhJOZ+pepFAmSvr99ByqhPHGBM0KYGIgZsYGnpftjbB0ycvH0fstIZ5aGh1L4gQPg2z6gef6F5yk27n0BD5UrBxTBFbHE1XI6TcQCA/zDTZs2lbp260rt2rUVS98jRryjP/1RGK67Jk6aQHin06pVS3qsouOTKZJfV+f3k0CLjj36g1Hi20P4DEzDRo2A5hethfn9z2TxvaWOnTqKd1vd+b2T5AEnlYKQLzFDh9DAQQMIX79o8corjHH84KZr2idTaeR774oFkmHDh9K8+XOpsdPTqoMq814znSJB1NXGT6QipV3DCOCMkMYqGQn8SIc5aTH0MypTdH7XOx4nmc8BOpcKKAh/dPBJAJA7tNFRkQYU4qc76CQUKVqE6tatQy83eTmNlx1JA992DRs1JHhkle+mwAuAHQySDiHmVC+wMkMR4MMOOACcLMLtFawT6sQuBpQHQAFBA8DCBHZZQBGrVHE5rkQeLFSFChUICySwXKgL+KwAmVKRIPjnZn1OjzZp4tH2hHvMQWnfQVojWQLL4VAomc7t/MyjTMswR4mSlLP0v2TSDrO4BDKtIuHvUv6tt+mZgQMpWyQWpoFxATq7FVZJWiMXZyLVKt3XzDV8UWmqz5hFgHuef0FF2/EsKoFMrUj4mxStW4/qL11GD/HcIUdEuNuO85AMWiWjNUJ9ACw64HRsZJ48FK34n0aeDXemBEKywm2H58hBFQbHUKPVa6n2+PFUsVkzKvVYBcJ8IMSf4+MwY4pAwpS4MXqNl8PLvNrKiLbTd6gEbqkiBUPm+So8RmW7dqOnxk2guouXUOEaTwdUTXQ6pSLy5qX7W7yaDpWdfadIIMspklV/OG9vh7QQjWoMH2FVVTafLCABW5FM/ojpWaNH2ralwhUrmZS0UXeqBGxFMvzlNU57s0YPt3yNHmvfiansny0BlwRsRXLJQsQ8rdSF8YpgjcFDqNLrbwo6+2JLQJWAUZHUvDsunpCYSEZrhDf1JatXp9dWraV/8VL7HScU+4Z9koCtSIqYcuXILpxzRPNy+t1lylClDh2p5dr19FzcaNJCjSqmFLSjd7wEbEVSukDr71dRy/Ubqfn3P1K9GbPo4XbtKSTM29skpbAdvaMlYCvSHf3nt2/eKgn8PwAAAP//9DOzkwAAAAZJREFUAwB6FFZSwEvqMAAAAABJRU5ErkJggg==&quot; width=&quot;521&quot; height=&quot;288&quot; style=&quot;margin-left:0px;margin-top:0px;&quot;&gt;&lt;/span&gt;&lt;/span&gt;&lt;/b&gt;" style="text;whiteSpace=wrap;html=1;" parent="1" vertex="1">
          <mxGeometry x="-2387" y="-1669" width="550" height="318" as="geometry" />
        </mxCell>
        <mxCell id="RLD2DgjJSdtXp8OdXWfW-2" style="edgeStyle=none;curved=1;rounded=0;orthogonalLoop=1;jettySize=auto;html=1;exitX=0.968;exitY=1.056;exitDx=0;exitDy=0;entryX=0.135;entryY=0.234;entryDx=0;entryDy=0;fontSize=12;startSize=8;endSize=8;exitPerimeter=0;entryPerimeter=0;" parent="1" source="p9kdUIZh6EmgJTnrJ6tv-1" target="YaSD1QKPfKZ4Oly8ewvq-2" edge="1">
          <mxGeometry relative="1" as="geometry" />
        </mxCell>
        <mxCell id="p9kdUIZh6EmgJTnrJ6tv-1" value="Branch" style="rounded=1;arcSize=10;whiteSpace=wrap;html=1;align=center;fontSize=25;fontStyle=1" parent="1" vertex="1">
          <mxGeometry x="-2212" y="-436" width="176" height="96" as="geometry" />
        </mxCell>
        <mxCell id="YaSD1QKPfKZ4Oly8ewvq-1" value="Name" style="ellipse;whiteSpace=wrap;html=1;align=center;fontSize=20;fontStyle=1" parent="1" vertex="1">
          <mxGeometry x="-2188" y="-536" width="118" height="56" as="geometry" />
        </mxCell>
        <mxCell id="YaSD1QKPfKZ4Oly8ewvq-2" value="ID" style="ellipse;whiteSpace=wrap;html=1;align=center;fontSize=20;fontStyle=5" parent="1" vertex="1">
          <mxGeometry x="-2029" y="-348" width="88" height="51" as="geometry" />
        </mxCell>
        <mxCell id="RLD2DgjJSdtXp8OdXWfW-1" style="edgeStyle=none;curved=1;rounded=0;orthogonalLoop=1;jettySize=auto;html=1;fontSize=12;startSize=8;endSize=8;exitX=0.475;exitY=0.066;exitDx=0;exitDy=0;exitPerimeter=0;" parent="1" source="p9kdUIZh6EmgJTnrJ6tv-1" target="YaSD1QKPfKZ4Oly8ewvq-1" edge="1">
          <mxGeometry relative="1" as="geometry">
            <mxPoint x="-2124" y="-433" as="sourcePoint" />
          </mxGeometry>
        </mxCell>
        <mxCell id="zpWDgoNKnzF8_VnrEMOg-1" style="edgeStyle=none;curved=1;rounded=0;orthogonalLoop=1;jettySize=auto;html=1;exitX=0.006;exitY=0.007;exitDx=0;exitDy=0;entryX=0.793;entryY=0.961;entryDx=0;entryDy=0;fontSize=12;startSize=8;endSize=8;exitPerimeter=0;entryPerimeter=0;" parent="1" source="zpWDgoNKnzF8_VnrEMOg-2" target="zpWDgoNKnzF8_VnrEMOg-4" edge="1">
          <mxGeometry relative="1" as="geometry" />
        </mxCell>
        <mxCell id="BatFAnjep-PmaOaX1sTT-3" style="edgeStyle=none;curved=1;rounded=0;orthogonalLoop=1;jettySize=auto;html=1;exitX=0.227;exitY=0.969;exitDx=0;exitDy=0;entryX=0.654;entryY=0.057;entryDx=0;entryDy=0;fontSize=12;startSize=8;endSize=8;exitPerimeter=0;entryPerimeter=0;" parent="1" source="zpWDgoNKnzF8_VnrEMOg-2" target="BatFAnjep-PmaOaX1sTT-1" edge="1">
          <mxGeometry relative="1" as="geometry" />
        </mxCell>
        <mxCell id="BatFAnjep-PmaOaX1sTT-4" style="edgeStyle=none;curved=1;rounded=0;orthogonalLoop=1;jettySize=auto;html=1;exitX=0.65;exitY=1.026;exitDx=0;exitDy=0;fontSize=12;startSize=8;endSize=8;exitPerimeter=0;" parent="1" source="zpWDgoNKnzF8_VnrEMOg-2" target="BatFAnjep-PmaOaX1sTT-2" edge="1">
          <mxGeometry relative="1" as="geometry" />
        </mxCell>
        <mxCell id="tv9DkTFjK_xPLvUfcPxo-2" value="" style="edgeStyle=none;curved=1;rounded=0;orthogonalLoop=1;jettySize=auto;html=1;fontSize=12;startSize=8;endSize=8;" edge="1" parent="1" source="zpWDgoNKnzF8_VnrEMOg-2" target="-VwbxRubtyLV2IxvxT_U-1">
          <mxGeometry relative="1" as="geometry" />
        </mxCell>
        <mxCell id="zpWDgoNKnzF8_VnrEMOg-2" value="Intake" style="rounded=1;arcSize=10;whiteSpace=wrap;html=1;align=center;fontSize=25;fontStyle=1" parent="1" vertex="1">
          <mxGeometry x="-2056" y="-972" width="176" height="96" as="geometry" />
        </mxCell>
        <mxCell id="zpWDgoNKnzF8_VnrEMOg-3" value="Year" style="ellipse;whiteSpace=wrap;html=1;align=center;fontSize=20;fontStyle=1" parent="1" vertex="1">
          <mxGeometry x="-1930" y="-1116" width="98" height="65" as="geometry" />
        </mxCell>
        <mxCell id="zpWDgoNKnzF8_VnrEMOg-4" value="ID" style="ellipse;whiteSpace=wrap;html=1;align=center;fontSize=20;fontStyle=5" parent="1" vertex="1">
          <mxGeometry x="-2153" y="-1037.5" width="63" height="60.5" as="geometry" />
        </mxCell>
        <mxCell id="zpWDgoNKnzF8_VnrEMOg-5" style="edgeStyle=none;curved=1;rounded=0;orthogonalLoop=1;jettySize=auto;html=1;exitX=0.888;exitY=-0.016;exitDx=0;exitDy=0;fontSize=12;startSize=8;endSize=8;exitPerimeter=0;" parent="1" source="zpWDgoNKnzF8_VnrEMOg-2" target="zpWDgoNKnzF8_VnrEMOg-3" edge="1">
          <mxGeometry relative="1" as="geometry" />
        </mxCell>
        <mxCell id="BatFAnjep-PmaOaX1sTT-1" value="Start_Date" style="ellipse;whiteSpace=wrap;html=1;align=center;fontSize=20;fontStyle=1" parent="1" vertex="1">
          <mxGeometry x="-2101" y="-815" width="116" height="74" as="geometry" />
        </mxCell>
        <mxCell id="BatFAnjep-PmaOaX1sTT-2" value="End_Date" style="ellipse;whiteSpace=wrap;html=1;align=center;fontSize=20;fontStyle=1" parent="1" vertex="1">
          <mxGeometry x="-1981" y="-821" width="116" height="74" as="geometry" />
        </mxCell>
        <mxCell id="GMT3HpUt6zNehc-nURSw-1" style="edgeStyle=none;curved=1;rounded=0;orthogonalLoop=1;jettySize=auto;html=1;exitX=0.33;exitY=0.005;exitDx=0;exitDy=0;entryX=0.371;entryY=0.946;entryDx=0;entryDy=0;fontSize=12;startSize=8;endSize=8;exitPerimeter=0;entryPerimeter=0;" parent="1" source="GMT3HpUt6zNehc-nURSw-2" target="GMT3HpUt6zNehc-nURSw-4" edge="1">
          <mxGeometry relative="1" as="geometry" />
        </mxCell>
        <mxCell id="GMT3HpUt6zNehc-nURSw-2" value="Track" style="rounded=1;arcSize=10;whiteSpace=wrap;html=1;align=center;fontSize=25;fontStyle=1" parent="1" vertex="1">
          <mxGeometry x="-1459.5" y="-1399" width="176" height="96" as="geometry" />
        </mxCell>
        <mxCell id="GMT3HpUt6zNehc-nURSw-3" value="Name" style="ellipse;whiteSpace=wrap;html=1;align=center;fontSize=20;fontStyle=1" parent="1" vertex="1">
          <mxGeometry x="-1643" y="-1532" width="116" height="74" as="geometry" />
        </mxCell>
        <mxCell id="GMT3HpUt6zNehc-nURSw-4" value="ID" style="ellipse;whiteSpace=wrap;html=1;align=center;fontSize=20;fontStyle=5" parent="1" vertex="1">
          <mxGeometry x="-1518" y="-1563" width="116" height="74" as="geometry" />
        </mxCell>
        <mxCell id="GMT3HpUt6zNehc-nURSw-5" style="edgeStyle=none;curved=1;rounded=0;orthogonalLoop=1;jettySize=auto;html=1;entryX=0.509;entryY=1.027;entryDx=0;entryDy=0;entryPerimeter=0;fontSize=12;startSize=8;endSize=8;" parent="1" source="GMT3HpUt6zNehc-nURSw-2" target="GMT3HpUt6zNehc-nURSw-3" edge="1">
          <mxGeometry relative="1" as="geometry" />
        </mxCell>
        <mxCell id="CXuL3cobVKBfN0XFa9y7-1" style="edgeStyle=none;curved=1;rounded=0;orthogonalLoop=1;jettySize=auto;html=1;exitX=1.034;exitY=0.229;exitDx=0;exitDy=0;fontSize=12;startSize=8;endSize=8;exitPerimeter=0;" parent="1" source="CXuL3cobVKBfN0XFa9y7-2" target="CXuL3cobVKBfN0XFa9y7-4" edge="1">
          <mxGeometry relative="1" as="geometry" />
        </mxCell>
        <mxCell id="geylNeVPSeIZc6jd-_P--5" style="edgeStyle=none;curved=1;rounded=0;orthogonalLoop=1;jettySize=auto;html=1;exitX=0.21;exitY=-0.023;exitDx=0;exitDy=0;entryX=0.5;entryY=1;entryDx=0;entryDy=0;fontSize=12;startSize=8;endSize=8;exitPerimeter=0;" parent="1" source="CXuL3cobVKBfN0XFa9y7-2" target="geylNeVPSeIZc6jd-_P--2" edge="1">
          <mxGeometry relative="1" as="geometry" />
        </mxCell>
        <mxCell id="geylNeVPSeIZc6jd-_P--6" style="edgeStyle=none;curved=1;rounded=0;orthogonalLoop=1;jettySize=auto;html=1;exitX=0.148;exitY=0.072;exitDx=0;exitDy=0;fontSize=12;startSize=8;endSize=8;exitPerimeter=0;" parent="1" source="CXuL3cobVKBfN0XFa9y7-2" target="geylNeVPSeIZc6jd-_P--1" edge="1">
          <mxGeometry relative="1" as="geometry" />
        </mxCell>
        <mxCell id="geylNeVPSeIZc6jd-_P--7" style="edgeStyle=none;curved=1;rounded=0;orthogonalLoop=1;jettySize=auto;html=1;exitX=0.004;exitY=0.167;exitDx=0;exitDy=0;entryX=1;entryY=1;entryDx=0;entryDy=0;fontSize=12;startSize=8;endSize=8;exitPerimeter=0;" parent="1" source="CXuL3cobVKBfN0XFa9y7-2" target="RUwaVUyUy1mg0eHtqZa5-1" edge="1">
          <mxGeometry relative="1" as="geometry" />
        </mxCell>
        <mxCell id="geylNeVPSeIZc6jd-_P--8" style="edgeStyle=none;curved=1;rounded=0;orthogonalLoop=1;jettySize=auto;html=1;exitX=1;exitY=1;exitDx=0;exitDy=0;entryX=0;entryY=0;entryDx=0;entryDy=0;fontSize=12;startSize=8;endSize=8;" parent="1" source="CXuL3cobVKBfN0XFa9y7-2" target="W2ocrZH-gdysyp9LZbba-1" edge="1">
          <mxGeometry relative="1" as="geometry" />
        </mxCell>
        <mxCell id="geylNeVPSeIZc6jd-_P--9" style="edgeStyle=none;curved=1;rounded=0;orthogonalLoop=1;jettySize=auto;html=1;exitX=0.75;exitY=1;exitDx=0;exitDy=0;entryX=0.5;entryY=0;entryDx=0;entryDy=0;fontSize=12;startSize=8;endSize=8;" parent="1" source="CXuL3cobVKBfN0XFa9y7-2" target="RUwaVUyUy1mg0eHtqZa5-2" edge="1">
          <mxGeometry relative="1" as="geometry" />
        </mxCell>
        <mxCell id="geylNeVPSeIZc6jd-_P--11" style="edgeStyle=none;curved=1;rounded=0;orthogonalLoop=1;jettySize=auto;html=1;exitX=0.25;exitY=1;exitDx=0;exitDy=0;entryX=0.563;entryY=0.058;entryDx=0;entryDy=0;fontSize=12;startSize=8;endSize=8;entryPerimeter=0;" parent="1" source="CXuL3cobVKBfN0XFa9y7-2" target="RUwaVUyUy1mg0eHtqZa5-3" edge="1">
          <mxGeometry relative="1" as="geometry" />
        </mxCell>
        <mxCell id="CXuL3cobVKBfN0XFa9y7-2" value="Student" style="rounded=1;arcSize=10;whiteSpace=wrap;html=1;align=center;fontSize=25;fontStyle=1" parent="1" vertex="1">
          <mxGeometry x="-1462" y="-980" width="176" height="96" as="geometry" />
        </mxCell>
        <mxCell id="CXuL3cobVKBfN0XFa9y7-3" value="Fullname" style="ellipse;whiteSpace=wrap;html=1;align=center;fontSize=20;fontStyle=1" parent="1" vertex="1">
          <mxGeometry x="-1294" y="-1111.5" width="116" height="74" as="geometry" />
        </mxCell>
        <mxCell id="CXuL3cobVKBfN0XFa9y7-4" value="NID" style="ellipse;whiteSpace=wrap;html=1;align=center;fontSize=20;fontStyle=5" parent="1" vertex="1">
          <mxGeometry x="-1270" y="-1027" width="116" height="74" as="geometry" />
        </mxCell>
        <mxCell id="CXuL3cobVKBfN0XFa9y7-5" style="edgeStyle=none;curved=1;rounded=0;orthogonalLoop=1;jettySize=auto;html=1;exitX=0.949;exitY=0.056;exitDx=0;exitDy=0;entryX=0.259;entryY=0.878;entryDx=0;entryDy=0;entryPerimeter=0;fontSize=12;startSize=8;endSize=8;exitPerimeter=0;" parent="1" source="CXuL3cobVKBfN0XFa9y7-2" target="CXuL3cobVKBfN0XFa9y7-3" edge="1">
          <mxGeometry relative="1" as="geometry" />
        </mxCell>
        <mxCell id="W2ocrZH-gdysyp9LZbba-1" value="Gender" style="ellipse;whiteSpace=wrap;html=1;align=center;fontSize=20;fontStyle=1" parent="1" vertex="1">
          <mxGeometry x="-1275" y="-819" width="116" height="74" as="geometry" />
        </mxCell>
        <mxCell id="W2ocrZH-gdysyp9LZbba-2" value="Grad_Year" style="ellipse;whiteSpace=wrap;html=1;align=center;fontSize=20;fontStyle=1" parent="1" vertex="1">
          <mxGeometry x="-1493" y="-749" width="116" height="74" as="geometry" />
        </mxCell>
        <mxCell id="RUwaVUyUy1mg0eHtqZa5-1" value="GPA" style="ellipse;whiteSpace=wrap;html=1;align=center;fontSize=20;fontStyle=1" parent="1" vertex="1">
          <mxGeometry x="-1604.5" y="-1041" width="87" height="58" as="geometry" />
        </mxCell>
        <mxCell id="RUwaVUyUy1mg0eHtqZa5-2" value="College" style="ellipse;whiteSpace=wrap;html=1;align=center;fontSize=20;fontStyle=1" parent="1" vertex="1">
          <mxGeometry x="-1398" y="-812" width="116" height="74" as="geometry" />
        </mxCell>
        <mxCell id="RUwaVUyUy1mg0eHtqZa5-3" value="Email" style="ellipse;whiteSpace=wrap;html=1;align=center;fontSize=20;fontStyle=1" parent="1" vertex="1">
          <mxGeometry x="-1537" y="-832" width="116" height="74" as="geometry" />
        </mxCell>
        <mxCell id="geylNeVPSeIZc6jd-_P--1" value="Phone" style="ellipse;whiteSpace=wrap;html=1;align=center;fontSize=20;fontStyle=1" parent="1" vertex="1">
          <mxGeometry x="-1638" y="-1114" width="96" height="61" as="geometry" />
        </mxCell>
        <mxCell id="geylNeVPSeIZc6jd-_P--2" value="City" style="ellipse;whiteSpace=wrap;html=1;align=center;fontSize=20;fontStyle=1" parent="1" vertex="1">
          <mxGeometry x="-1520" y="-1083.5" width="72.5" height="53" as="geometry" />
        </mxCell>
        <mxCell id="geylNeVPSeIZc6jd-_P--3" value="BD" style="ellipse;whiteSpace=wrap;html=1;align=center;fontSize=20;fontStyle=1" parent="1" vertex="1">
          <mxGeometry x="-1355.5" y="-1063" width="73.5" height="60" as="geometry" />
        </mxCell>
        <mxCell id="geylNeVPSeIZc6jd-_P--10" style="edgeStyle=none;curved=1;rounded=0;orthogonalLoop=1;jettySize=auto;html=1;exitX=0.5;exitY=1;exitDx=0;exitDy=0;entryX=0.647;entryY=0.041;entryDx=0;entryDy=0;entryPerimeter=0;fontSize=12;startSize=8;endSize=8;" parent="1" source="CXuL3cobVKBfN0XFa9y7-2" target="W2ocrZH-gdysyp9LZbba-2" edge="1">
          <mxGeometry relative="1" as="geometry" />
        </mxCell>
        <mxCell id="TYJ9GR9Tai2EPhFAVrik-1" style="edgeStyle=none;curved=1;rounded=0;orthogonalLoop=1;jettySize=auto;html=1;exitX=0.884;exitY=0.045;exitDx=0;exitDy=0;entryX=0.578;entryY=0.933;entryDx=0;entryDy=0;fontSize=12;startSize=8;endSize=8;exitPerimeter=0;entryPerimeter=0;" parent="1" source="guL3t1uDuacnGlXDYMYO-1" target="4H7jd8lYHoeugd3PWfHc-2" edge="1">
          <mxGeometry relative="1" as="geometry" />
        </mxCell>
        <mxCell id="TYJ9GR9Tai2EPhFAVrik-3" style="edgeStyle=none;curved=1;rounded=0;orthogonalLoop=1;jettySize=auto;html=1;exitX=0.458;exitY=-0.007;exitDx=0;exitDy=0;fontSize=12;startSize=8;endSize=8;exitPerimeter=0;" parent="1" source="guL3t1uDuacnGlXDYMYO-1" target="4H7jd8lYHoeugd3PWfHc-1" edge="1">
          <mxGeometry relative="1" as="geometry" />
        </mxCell>
        <mxCell id="TYJ9GR9Tai2EPhFAVrik-4" style="edgeStyle=none;curved=1;rounded=0;orthogonalLoop=1;jettySize=auto;html=1;exitX=1;exitY=0;exitDx=0;exitDy=0;entryX=0;entryY=0.5;entryDx=0;entryDy=0;fontSize=12;startSize=8;endSize=8;" parent="1" source="guL3t1uDuacnGlXDYMYO-1" target="d1euHhnSKnyn-M6AVJWQ-1" edge="1">
          <mxGeometry relative="1" as="geometry" />
        </mxCell>
        <mxCell id="9ASmHh4he86aoxK09qwm-3" style="edgeStyle=none;curved=1;rounded=0;orthogonalLoop=1;jettySize=auto;html=1;exitX=1;exitY=0.75;exitDx=0;exitDy=0;fontSize=12;startSize=8;endSize=8;" parent="1" source="guL3t1uDuacnGlXDYMYO-1" target="d1euHhnSKnyn-M6AVJWQ-2" edge="1">
          <mxGeometry relative="1" as="geometry" />
        </mxCell>
        <mxCell id="9ASmHh4he86aoxK09qwm-4" style="edgeStyle=none;curved=1;rounded=0;orthogonalLoop=1;jettySize=auto;html=1;exitX=1;exitY=1;exitDx=0;exitDy=0;fontSize=12;startSize=8;endSize=8;" parent="1" source="guL3t1uDuacnGlXDYMYO-1" target="d1euHhnSKnyn-M6AVJWQ-3" edge="1">
          <mxGeometry relative="1" as="geometry" />
        </mxCell>
        <mxCell id="9ASmHh4he86aoxK09qwm-5" style="edgeStyle=none;curved=1;rounded=0;orthogonalLoop=1;jettySize=auto;html=1;exitX=0.75;exitY=1;exitDx=0;exitDy=0;entryX=0.5;entryY=0.038;entryDx=0;entryDy=0;fontSize=12;startSize=8;endSize=8;entryPerimeter=0;" parent="1" source="guL3t1uDuacnGlXDYMYO-1" target="OtvXr8LYdXvmiWl8-7NP-2" edge="1">
          <mxGeometry relative="1" as="geometry">
            <mxPoint x="-489.2395731831639" y="-827.4602934365748" as="targetPoint" />
          </mxGeometry>
        </mxCell>
        <mxCell id="guL3t1uDuacnGlXDYMYO-1" value="Exam" style="rounded=1;arcSize=10;whiteSpace=wrap;html=1;align=center;fontSize=25;fontStyle=1" parent="1" vertex="1">
          <mxGeometry x="-589" y="-969" width="176" height="96" as="geometry" />
        </mxCell>
        <mxCell id="guL3t1uDuacnGlXDYMYO-2" value="ID" style="ellipse;whiteSpace=wrap;html=1;align=center;fontSize=20;fontStyle=5" parent="1" vertex="1">
          <mxGeometry x="-682" y="-1016" width="70" height="57" as="geometry" />
        </mxCell>
        <mxCell id="4H7jd8lYHoeugd3PWfHc-1" value="Type" style="ellipse;whiteSpace=wrap;html=1;align=center;fontSize=20;fontStyle=1" parent="1" vertex="1">
          <mxGeometry x="-573" y="-1047" width="78" height="61" as="geometry" />
        </mxCell>
        <mxCell id="4H7jd8lYHoeugd3PWfHc-2" value="Date" style="ellipse;whiteSpace=wrap;html=1;align=center;fontSize=20;fontStyle=1" parent="1" vertex="1">
          <mxGeometry x="-464" y="-1058" width="83" height="65" as="geometry" />
        </mxCell>
        <mxCell id="d1euHhnSKnyn-M6AVJWQ-1" value="Start_Time" style="ellipse;whiteSpace=wrap;html=1;align=center;fontSize=20;fontStyle=1" parent="1" vertex="1">
          <mxGeometry x="-381" y="-1041" width="116" height="74" as="geometry" />
        </mxCell>
        <mxCell id="d1euHhnSKnyn-M6AVJWQ-2" value="End_Time" style="ellipse;whiteSpace=wrap;html=1;align=center;fontSize=20;fontStyle=1" parent="1" vertex="1">
          <mxGeometry x="-377" y="-906" width="116" height="74" as="geometry" />
        </mxCell>
        <mxCell id="d1euHhnSKnyn-M6AVJWQ-3" value="Total_Degree" style="ellipse;whiteSpace=wrap;html=1;align=center;fontSize=20;fontStyle=1" parent="1" vertex="1">
          <mxGeometry x="-374" y="-822" width="138" height="80" as="geometry" />
        </mxCell>
        <mxCell id="TYJ9GR9Tai2EPhFAVrik-2" style="edgeStyle=none;curved=1;rounded=0;orthogonalLoop=1;jettySize=auto;html=1;exitX=0.013;exitY=0.097;exitDx=0;exitDy=0;fontSize=12;startSize=8;endSize=8;exitPerimeter=0;" parent="1" source="guL3t1uDuacnGlXDYMYO-1" target="guL3t1uDuacnGlXDYMYO-2" edge="1">
          <mxGeometry relative="1" as="geometry" />
        </mxCell>
        <mxCell id="OtvXr8LYdXvmiWl8-7NP-2" value="No_Questions" style="ellipse;whiteSpace=wrap;html=1;align=center;fontSize=20;fontStyle=1" parent="1" vertex="1">
          <mxGeometry x="-440" y="-738" width="152" height="78" as="geometry" />
        </mxCell>
        <mxCell id="cbM4RclClRmySe2xzdwX-1" style="edgeStyle=none;curved=1;rounded=0;orthogonalLoop=1;jettySize=auto;html=1;exitX=0;exitY=1;exitDx=0;exitDy=0;entryX=0.677;entryY=0.105;entryDx=0;entryDy=0;fontSize=12;startSize=8;endSize=8;entryPerimeter=0;" parent="1" source="w69AwhqZq3hxhUBCGcc7-1" target="lrn9U0eu-WJkRM7ZJJOL-1" edge="1">
          <mxGeometry relative="1" as="geometry" />
        </mxCell>
        <mxCell id="cbM4RclClRmySe2xzdwX-3" style="edgeStyle=none;curved=1;rounded=0;orthogonalLoop=1;jettySize=auto;html=1;exitX=0.5;exitY=1;exitDx=0;exitDy=0;entryX=0.5;entryY=0;entryDx=0;entryDy=0;fontSize=12;startSize=8;endSize=8;" parent="1" source="w69AwhqZq3hxhUBCGcc7-1" target="e9qt4WoN3JZfY88veYen-1" edge="1">
          <mxGeometry relative="1" as="geometry" />
        </mxCell>
        <mxCell id="cbM4RclClRmySe2xzdwX-4" style="edgeStyle=none;curved=1;rounded=0;orthogonalLoop=1;jettySize=auto;html=1;exitX=0.75;exitY=1;exitDx=0;exitDy=0;fontSize=12;startSize=8;endSize=8;" parent="1" source="w69AwhqZq3hxhUBCGcc7-1" target="lrn9U0eu-WJkRM7ZJJOL-3" edge="1">
          <mxGeometry relative="1" as="geometry" />
        </mxCell>
        <mxCell id="cbM4RclClRmySe2xzdwX-5" style="edgeStyle=none;curved=1;rounded=0;orthogonalLoop=1;jettySize=auto;html=1;exitX=1;exitY=1;exitDx=0;exitDy=0;entryX=0;entryY=0;entryDx=0;entryDy=0;fontSize=12;startSize=8;endSize=8;" parent="1" source="w69AwhqZq3hxhUBCGcc7-1" target="h36QXPD7aNECN3rrZryc-1" edge="1">
          <mxGeometry relative="1" as="geometry" />
        </mxCell>
        <mxCell id="cbM4RclClRmySe2xzdwX-7" style="edgeStyle=none;curved=1;rounded=0;orthogonalLoop=1;jettySize=auto;html=1;exitX=1;exitY=0.75;exitDx=0;exitDy=0;entryX=0;entryY=1;entryDx=0;entryDy=0;fontSize=12;startSize=8;endSize=8;" parent="1" source="w69AwhqZq3hxhUBCGcc7-1" target="MlpVqLGlV_0AdR7cUW2w-1" edge="1">
          <mxGeometry relative="1" as="geometry" />
        </mxCell>
        <mxCell id="cbM4RclClRmySe2xzdwX-8" style="edgeStyle=none;curved=1;rounded=0;orthogonalLoop=1;jettySize=auto;html=1;exitX=1;exitY=0.5;exitDx=0;exitDy=0;entryX=0;entryY=0.5;entryDx=0;entryDy=0;fontSize=12;startSize=8;endSize=8;" parent="1" source="w69AwhqZq3hxhUBCGcc7-1" target="e9qt4WoN3JZfY88veYen-3" edge="1">
          <mxGeometry relative="1" as="geometry" />
        </mxCell>
        <mxCell id="cbM4RclClRmySe2xzdwX-9" style="edgeStyle=none;curved=1;rounded=0;orthogonalLoop=1;jettySize=auto;html=1;exitX=1;exitY=0;exitDx=0;exitDy=0;entryX=0;entryY=1;entryDx=0;entryDy=0;fontSize=12;startSize=8;endSize=8;" parent="1" source="w69AwhqZq3hxhUBCGcc7-1" target="e9qt4WoN3JZfY88veYen-2" edge="1">
          <mxGeometry relative="1" as="geometry" />
        </mxCell>
        <mxCell id="w69AwhqZq3hxhUBCGcc7-1" value="Instructor" style="rounded=1;arcSize=10;whiteSpace=wrap;html=1;align=center;fontSize=25;fontStyle=1" parent="1" vertex="1">
          <mxGeometry x="143" y="-963" width="176" height="96" as="geometry" />
        </mxCell>
        <mxCell id="e9qt4WoN3JZfY88veYen-1" value="NID" style="ellipse;whiteSpace=wrap;html=1;align=center;fontSize=20;fontStyle=5" parent="1" vertex="1">
          <mxGeometry x="182" y="-794" width="104" height="74" as="geometry" />
        </mxCell>
        <mxCell id="e9qt4WoN3JZfY88veYen-2" value="Gender" style="ellipse;whiteSpace=wrap;html=1;align=center;fontSize=20;fontStyle=1" parent="1" vertex="1">
          <mxGeometry x="339" y="-1073" width="104" height="80" as="geometry" />
        </mxCell>
        <mxCell id="e9qt4WoN3JZfY88veYen-3" value="BD" style="ellipse;whiteSpace=wrap;html=1;align=center;fontSize=20;fontStyle=1" parent="1" vertex="1">
          <mxGeometry x="364" y="-979" width="116" height="74" as="geometry" />
        </mxCell>
        <mxCell id="MlpVqLGlV_0AdR7cUW2w-1" value="Name" style="ellipse;whiteSpace=wrap;html=1;align=center;fontSize=20;fontStyle=1" parent="1" vertex="1">
          <mxGeometry x="353" y="-900" width="102" height="76" as="geometry" />
        </mxCell>
        <mxCell id="lrn9U0eu-WJkRM7ZJJOL-1" value="Phone" style="ellipse;whiteSpace=wrap;html=1;align=center;fontSize=20;fontStyle=1" parent="1" vertex="1">
          <mxGeometry x="69" y="-796" width="96" height="76" as="geometry" />
        </mxCell>
        <mxCell id="lrn9U0eu-WJkRM7ZJJOL-2" value="Email" style="ellipse;whiteSpace=wrap;html=1;align=center;fontSize=20;fontStyle=1" parent="1" vertex="1">
          <mxGeometry x="156" y="-720" width="86" height="76" as="geometry" />
        </mxCell>
        <mxCell id="lrn9U0eu-WJkRM7ZJJOL-3" value="City" style="ellipse;whiteSpace=wrap;html=1;align=center;fontSize=20;fontStyle=1" parent="1" vertex="1">
          <mxGeometry x="273" y="-724" width="84" height="76" as="geometry" />
        </mxCell>
        <mxCell id="h36QXPD7aNECN3rrZryc-1" value="Salary" style="ellipse;whiteSpace=wrap;html=1;align=center;fontSize=20;fontStyle=1" parent="1" vertex="1">
          <mxGeometry x="312" y="-798" width="116" height="74" as="geometry" />
        </mxCell>
        <mxCell id="cbM4RclClRmySe2xzdwX-2" style="edgeStyle=none;curved=1;rounded=0;orthogonalLoop=1;jettySize=auto;html=1;exitX=0.25;exitY=1;exitDx=0;exitDy=0;entryX=0.314;entryY=0.092;entryDx=0;entryDy=0;entryPerimeter=0;fontSize=12;startSize=8;endSize=8;" parent="1" source="w69AwhqZq3hxhUBCGcc7-1" target="lrn9U0eu-WJkRM7ZJJOL-2" edge="1">
          <mxGeometry relative="1" as="geometry" />
        </mxCell>
        <mxCell id="ODyNRs8e1AsLme6WQglQ-1" value="Course" style="rounded=1;arcSize=10;whiteSpace=wrap;html=1;align=center;fontSize=25;fontStyle=1" parent="1" vertex="1">
          <mxGeometry x="-595" y="-1402" width="176" height="96" as="geometry" />
        </mxCell>
        <mxCell id="Uil8WH4oArrk9RGbcKk2-1" value="ID" style="ellipse;whiteSpace=wrap;html=1;align=center;fontSize=20;fontStyle=5" parent="1" vertex="1">
          <mxGeometry x="-683" y="-1506" width="92" height="66" as="geometry" />
        </mxCell>
        <mxCell id="Uil8WH4oArrk9RGbcKk2-2" value="Name" style="ellipse;whiteSpace=wrap;html=1;align=center;fontSize=20;fontStyle=1" parent="1" vertex="1">
          <mxGeometry x="-587" y="-1522" width="102" height="76" as="geometry" />
        </mxCell>
        <mxCell id="Uil8WH4oArrk9RGbcKk2-3" value="Discreption" style="ellipse;whiteSpace=wrap;html=1;align=center;fontSize=20;fontStyle=1" parent="1" vertex="1">
          <mxGeometry x="-545" y="-1591" width="132" height="76" as="geometry" />
        </mxCell>
        <mxCell id="Uil8WH4oArrk9RGbcKk2-4" value="Max_Degre" style="ellipse;whiteSpace=wrap;html=1;align=center;fontSize=20;fontStyle=1" parent="1" vertex="1">
          <mxGeometry x="-432" y="-1540" width="132" height="82" as="geometry" />
        </mxCell>
        <mxCell id="Uil8WH4oArrk9RGbcKk2-5" value="Min_Degre" style="ellipse;whiteSpace=wrap;html=1;align=center;fontSize=20;fontStyle=1" parent="1" vertex="1">
          <mxGeometry x="-371" y="-1454" width="132" height="82" as="geometry" />
        </mxCell>
        <mxCell id="_P23Kv6lA5qYCV5dCnpN-1" style="edgeStyle=none;curved=1;rounded=0;orthogonalLoop=1;jettySize=auto;html=1;exitX=0.983;exitY=0.052;exitDx=0;exitDy=0;entryX=0.053;entryY=0.524;entryDx=0;entryDy=0;fontSize=12;startSize=8;endSize=8;exitPerimeter=0;entryPerimeter=0;" edge="1" parent="1" source="ODyNRs8e1AsLme6WQglQ-1" target="Uil8WH4oArrk9RGbcKk2-5">
          <mxGeometry relative="1" as="geometry">
            <mxPoint x="-47" y="-880" as="sourcePoint" />
            <mxPoint x="-44" y="-807" as="targetPoint" />
          </mxGeometry>
        </mxCell>
        <mxCell id="_P23Kv6lA5qYCV5dCnpN-2" style="edgeStyle=none;curved=1;rounded=0;orthogonalLoop=1;jettySize=auto;html=1;exitX=0.938;exitY=-0.01;exitDx=0;exitDy=0;entryX=0.394;entryY=0.939;entryDx=0;entryDy=0;fontSize=12;startSize=8;endSize=8;entryPerimeter=0;exitPerimeter=0;" edge="1" parent="1" source="ODyNRs8e1AsLme6WQglQ-1" target="Uil8WH4oArrk9RGbcKk2-4">
          <mxGeometry relative="1" as="geometry">
            <mxPoint x="-425" y="-1462" as="sourcePoint" />
            <mxPoint x="-422" y="-1389" as="targetPoint" />
          </mxGeometry>
        </mxCell>
        <mxCell id="_P23Kv6lA5qYCV5dCnpN-3" style="edgeStyle=none;curved=1;rounded=0;orthogonalLoop=1;jettySize=auto;html=1;entryX=0.614;entryY=1.066;entryDx=0;entryDy=0;fontSize=12;startSize=8;endSize=8;entryPerimeter=0;exitX=0.722;exitY=0.01;exitDx=0;exitDy=0;exitPerimeter=0;" edge="1" parent="1" source="ODyNRs8e1AsLme6WQglQ-1" target="Uil8WH4oArrk9RGbcKk2-3">
          <mxGeometry relative="1" as="geometry">
            <mxPoint x="-452" y="-1409" as="sourcePoint" />
            <mxPoint x="-494" y="-1373" as="targetPoint" />
          </mxGeometry>
        </mxCell>
        <mxCell id="_P23Kv6lA5qYCV5dCnpN-4" style="edgeStyle=none;curved=1;rounded=0;orthogonalLoop=1;jettySize=auto;html=1;entryX=0.882;entryY=0.803;entryDx=0;entryDy=0;fontSize=12;startSize=8;endSize=8;entryPerimeter=0;exitX=0.631;exitY=0.01;exitDx=0;exitDy=0;exitPerimeter=0;" edge="1" parent="1">
          <mxGeometry relative="1" as="geometry">
            <mxPoint x="-515.9440000000004" y="-1401.04" as="sourcePoint" />
            <mxPoint x="-529.0360000000001" y="-1460.9720000000002" as="targetPoint" />
          </mxGeometry>
        </mxCell>
        <mxCell id="_P23Kv6lA5qYCV5dCnpN-5" style="edgeStyle=none;curved=1;rounded=0;orthogonalLoop=1;jettySize=auto;html=1;entryX=0.88;entryY=0.924;entryDx=0;entryDy=0;fontSize=12;startSize=8;endSize=8;entryPerimeter=0;exitX=0.199;exitY=0.031;exitDx=0;exitDy=0;exitPerimeter=0;" edge="1" parent="1" source="ODyNRs8e1AsLme6WQglQ-1" target="Uil8WH4oArrk9RGbcKk2-1">
          <mxGeometry relative="1" as="geometry">
            <mxPoint x="-575" y="-1378" as="sourcePoint" />
            <mxPoint x="-587" y="-1438" as="targetPoint" />
          </mxGeometry>
        </mxCell>
        <mxCell id="a_mzHDoUXyQHlvejMDeY-1" style="edgeStyle=none;curved=1;rounded=0;orthogonalLoop=1;jettySize=auto;html=1;entryX=0.5;entryY=1.014;entryDx=0;entryDy=0;fontSize=12;startSize=8;endSize=8;entryPerimeter=0;" edge="1" parent="1" source="a_mzHDoUXyQHlvejMDeY-2" target="a_mzHDoUXyQHlvejMDeY-4">
          <mxGeometry relative="1" as="geometry" />
        </mxCell>
        <mxCell id="a_mzHDoUXyQHlvejMDeY-2" value="Department" style="rounded=1;arcSize=10;whiteSpace=wrap;html=1;align=center;fontSize=25;fontStyle=1" vertex="1" parent="1">
          <mxGeometry x="160" y="-1407" width="176" height="96" as="geometry" />
        </mxCell>
        <mxCell id="a_mzHDoUXyQHlvejMDeY-3" value="Name" style="ellipse;whiteSpace=wrap;html=1;align=center;fontSize=20;fontStyle=1" vertex="1" parent="1">
          <mxGeometry x="333" y="-1536" width="116" height="74" as="geometry" />
        </mxCell>
        <mxCell id="a_mzHDoUXyQHlvejMDeY-4" value="ID" style="ellipse;whiteSpace=wrap;html=1;align=center;fontSize=20;fontStyle=5" vertex="1" parent="1">
          <mxGeometry x="213" y="-1567" width="109" height="72" as="geometry" />
        </mxCell>
        <mxCell id="a_mzHDoUXyQHlvejMDeY-5" style="edgeStyle=none;curved=1;rounded=0;orthogonalLoop=1;jettySize=auto;html=1;exitX=0.813;exitY=0.031;exitDx=0;exitDy=0;entryX=0.5;entryY=0.959;entryDx=0;entryDy=0;entryPerimeter=0;fontSize=12;startSize=8;endSize=8;exitPerimeter=0;" edge="1" parent="1" source="a_mzHDoUXyQHlvejMDeY-2" target="a_mzHDoUXyQHlvejMDeY-3">
          <mxGeometry relative="1" as="geometry" />
        </mxCell>
        <mxCell id="2UCn0vdWUT8egZPG9wR1-1" value="Questions" style="rounded=1;arcSize=10;whiteSpace=wrap;html=1;align=center;fontSize=25;fontStyle=1" vertex="1" parent="1">
          <mxGeometry x="-1086" y="-632" width="176" height="96" as="geometry" />
        </mxCell>
        <mxCell id="3GJ16WwJNXQZbAOL8vlg-1" value="ID" style="ellipse;whiteSpace=wrap;html=1;align=center;fontSize=20;fontStyle=5" vertex="1" parent="1">
          <mxGeometry x="-1220" y="-582" width="78" height="72" as="geometry" />
        </mxCell>
        <mxCell id="3GJ16WwJNXQZbAOL8vlg-2" value="Head" style="ellipse;whiteSpace=wrap;html=1;align=center;fontSize=20;fontStyle=1" vertex="1" parent="1">
          <mxGeometry x="-1184" y="-508" width="84" height="74" as="geometry" />
        </mxCell>
        <mxCell id="3GJ16WwJNXQZbAOL8vlg-3" value="Options" style="ellipse;whiteSpace=wrap;html=1;align=center;fontSize=20;fontStyle=1" vertex="1" parent="1">
          <mxGeometry x="-1096" y="-492" width="88" height="76" as="geometry" />
        </mxCell>
        <mxCell id="opC5lac_Gy1yrK17t3lz-1" value="Type" style="ellipse;whiteSpace=wrap;html=1;align=center;fontSize=20;fontStyle=1" vertex="1" parent="1">
          <mxGeometry x="-1002" y="-476" width="84" height="74" as="geometry" />
        </mxCell>
        <mxCell id="opC5lac_Gy1yrK17t3lz-2" value="Correct_Answer" style="ellipse;whiteSpace=wrap;html=1;align=center;fontSize=20;fontStyle=1" vertex="1" parent="1">
          <mxGeometry x="-866" y="-565" width="184" height="86" as="geometry" />
        </mxCell>
        <mxCell id="opC5lac_Gy1yrK17t3lz-3" value="Degree" style="ellipse;whiteSpace=wrap;html=1;align=center;fontSize=20;fontStyle=1" vertex="1" parent="1">
          <mxGeometry x="-910" y="-476" width="84" height="74" as="geometry" />
        </mxCell>
        <mxCell id="OFG8xugMdTM8JdCjeuD1-2" style="edgeStyle=none;curved=1;rounded=0;orthogonalLoop=1;jettySize=auto;html=1;exitX=0.04;exitY=0.573;exitDx=0;exitDy=0;entryX=0.962;entryY=0.514;entryDx=0;entryDy=0;fontSize=12;startSize=8;endSize=8;entryPerimeter=0;exitPerimeter=0;" edge="1" parent="1" source="2UCn0vdWUT8egZPG9wR1-1" target="3GJ16WwJNXQZbAOL8vlg-1">
          <mxGeometry relative="1" as="geometry">
            <mxPoint x="-569" y="-1128" as="sourcePoint" />
            <mxPoint x="-610" y="-1104" as="targetPoint" />
          </mxGeometry>
        </mxCell>
        <mxCell id="OFG8xugMdTM8JdCjeuD1-3" style="edgeStyle=none;curved=1;rounded=0;orthogonalLoop=1;jettySize=auto;html=1;exitX=0.04;exitY=0.948;exitDx=0;exitDy=0;entryX=0.726;entryY=0.095;entryDx=0;entryDy=0;fontSize=12;startSize=8;endSize=8;exitPerimeter=0;entryPerimeter=0;" edge="1" parent="1" source="2UCn0vdWUT8egZPG9wR1-1" target="3GJ16WwJNXQZbAOL8vlg-2">
          <mxGeometry relative="1" as="geometry">
            <mxPoint x="-1063" y="-524" as="sourcePoint" />
            <mxPoint x="-1104" y="-500" as="targetPoint" />
          </mxGeometry>
        </mxCell>
        <mxCell id="OFG8xugMdTM8JdCjeuD1-4" style="edgeStyle=none;curved=1;rounded=0;orthogonalLoop=1;jettySize=auto;html=1;exitX=0.244;exitY=1.073;exitDx=0;exitDy=0;entryX=0.534;entryY=0.013;entryDx=0;entryDy=0;fontSize=12;startSize=8;endSize=8;exitPerimeter=0;entryPerimeter=0;" edge="1" parent="1" source="2UCn0vdWUT8egZPG9wR1-1" target="3GJ16WwJNXQZbAOL8vlg-3">
          <mxGeometry relative="1" as="geometry">
            <mxPoint x="-987" y="-524" as="sourcePoint" />
            <mxPoint x="-1028" y="-500" as="targetPoint" />
          </mxGeometry>
        </mxCell>
        <mxCell id="OFG8xugMdTM8JdCjeuD1-5" style="edgeStyle=none;curved=1;rounded=0;orthogonalLoop=1;jettySize=auto;html=1;exitX=0.494;exitY=0.99;exitDx=0;exitDy=0;entryX=0.393;entryY=0.068;entryDx=0;entryDy=0;fontSize=12;startSize=8;endSize=8;entryPerimeter=0;exitPerimeter=0;" edge="1" parent="1" source="2UCn0vdWUT8egZPG9wR1-1" target="opC5lac_Gy1yrK17t3lz-1">
          <mxGeometry relative="1" as="geometry">
            <mxPoint x="-933" y="-526" as="sourcePoint" />
            <mxPoint x="-974" y="-502" as="targetPoint" />
          </mxGeometry>
        </mxCell>
        <mxCell id="OFG8xugMdTM8JdCjeuD1-6" style="edgeStyle=none;curved=1;rounded=0;orthogonalLoop=1;jettySize=auto;html=1;exitX=0.892;exitY=1.01;exitDx=0;exitDy=0;entryX=0.417;entryY=0.041;entryDx=0;entryDy=0;fontSize=12;startSize=8;endSize=8;exitPerimeter=0;entryPerimeter=0;" edge="1" parent="1" source="2UCn0vdWUT8egZPG9wR1-1" target="opC5lac_Gy1yrK17t3lz-3">
          <mxGeometry relative="1" as="geometry">
            <mxPoint x="-869" y="-506" as="sourcePoint" />
            <mxPoint x="-910" y="-482" as="targetPoint" />
          </mxGeometry>
        </mxCell>
        <mxCell id="OFG8xugMdTM8JdCjeuD1-7" style="edgeStyle=none;curved=1;rounded=0;orthogonalLoop=1;jettySize=auto;html=1;exitX=1.006;exitY=0.906;exitDx=0;exitDy=0;entryX=0.027;entryY=0.442;entryDx=0;entryDy=0;fontSize=12;startSize=8;endSize=8;exitPerimeter=0;entryPerimeter=0;" edge="1" parent="1" source="2UCn0vdWUT8egZPG9wR1-1" target="opC5lac_Gy1yrK17t3lz-2">
          <mxGeometry relative="1" as="geometry">
            <mxPoint x="-831" y="-584" as="sourcePoint" />
            <mxPoint x="-872" y="-560" as="targetPoint" />
          </mxGeometry>
        </mxCell>
        <mxCell id="6VwaKP3AR2C-sFE2T3r5-1" value="Join" style="shape=rhombus;perimeter=rhombusPerimeter;whiteSpace=wrap;html=1;align=center;fontSize=20;fontStyle=1" vertex="1" parent="1">
          <mxGeometry x="-2111" y="-660" width="109" height="116" as="geometry" />
        </mxCell>
        <mxCell id="cIdRD_JFFk1iCQ3QkRIk-1" value="" style="shape=link;html=1;rounded=0;fontSize=12;startSize=8;endSize=8;curved=1;exitX=0.501;exitY=-0.003;exitDx=0;exitDy=0;exitPerimeter=0;entryX=0.051;entryY=1.029;entryDx=0;entryDy=0;entryPerimeter=0;" edge="1" parent="1" source="6VwaKP3AR2C-sFE2T3r5-1" target="CXuL3cobVKBfN0XFa9y7-2">
          <mxGeometry width="100" relative="1" as="geometry">
            <mxPoint x="-759" y="-803" as="sourcePoint" />
            <mxPoint x="-659" y="-803" as="targetPoint" />
            <Array as="points" />
          </mxGeometry>
        </mxCell>
        <mxCell id="cIdRD_JFFk1iCQ3QkRIk-2" value="" style="shape=link;html=1;rounded=0;fontSize=12;startSize=8;endSize=8;curved=1;entryX=0.485;entryY=0.969;entryDx=0;entryDy=0;entryPerimeter=0;" edge="1" parent="1" target="6VwaKP3AR2C-sFE2T3r5-1">
          <mxGeometry width="100" relative="1" as="geometry">
            <mxPoint x="-2058" y="-435" as="sourcePoint" />
            <mxPoint x="-1672" y="-553" as="targetPoint" />
            <Array as="points" />
          </mxGeometry>
        </mxCell>
        <mxCell id="-W7a_S2DQd-EPVk-9j1C-1" value="Assign" style="shape=rhombus;perimeter=rhombusPerimeter;whiteSpace=wrap;html=1;align=center;fontSize=20;fontStyle=1" vertex="1" parent="1">
          <mxGeometry x="-581" y="-484" width="109" height="116" as="geometry" />
        </mxCell>
        <mxCell id="-W7a_S2DQd-EPVk-9j1C-2" value="" style="shape=link;html=1;rounded=0;fontSize=12;startSize=8;endSize=8;curved=1;entryX=0.364;entryY=1.052;entryDx=0;entryDy=0;entryPerimeter=0;exitX=0.505;exitY=0.029;exitDx=0;exitDy=0;exitPerimeter=0;" edge="1" parent="1" source="-W7a_S2DQd-EPVk-9j1C-1" target="guL3t1uDuacnGlXDYMYO-1">
          <mxGeometry width="100" relative="1" as="geometry">
            <mxPoint x="-493" y="-410" as="sourcePoint" />
            <mxPoint x="-517.5919999999996" y="-874.9200000000001" as="targetPoint" />
            <Array as="points" />
          </mxGeometry>
        </mxCell>
        <mxCell id="-W7a_S2DQd-EPVk-9j1C-3" value="" style="shape=link;html=1;rounded=0;fontSize=12;startSize=8;endSize=8;curved=1;entryX=0.553;entryY=0.94;entryDx=0;entryDy=0;entryPerimeter=0;exitX=0.977;exitY=0.674;exitDx=0;exitDy=0;exitPerimeter=0;" edge="1" parent="1" source="p9kdUIZh6EmgJTnrJ6tv-1" target="-W7a_S2DQd-EPVk-9j1C-1">
          <mxGeometry width="100" relative="1" as="geometry">
            <mxPoint x="-2049" y="-217" as="sourcePoint" />
            <mxPoint x="-526.8789999999999" y="-231.99600000000044" as="targetPoint" />
            <Array as="points" />
          </mxGeometry>
        </mxCell>
        <mxCell id="VzKv1CGfVXmQhoCKNYL7-1" value="Open" style="shape=rhombus;perimeter=rhombusPerimeter;whiteSpace=wrap;html=1;align=center;fontSize=20;fontStyle=1" vertex="1" parent="1">
          <mxGeometry x="-2245" y="-977" width="109" height="116" as="geometry" />
        </mxCell>
        <mxCell id="s0yuuBE6nrt6rCImfh5s-1" value="" style="shape=link;html=1;rounded=0;fontSize=12;startSize=8;endSize=8;curved=1;exitX=0.089;exitY=0.03;exitDx=0;exitDy=0;exitPerimeter=0;entryX=0.459;entryY=0.963;entryDx=0;entryDy=0;entryPerimeter=0;" edge="1" parent="1" source="p9kdUIZh6EmgJTnrJ6tv-1" target="VzKv1CGfVXmQhoCKNYL7-1">
          <mxGeometry width="100" relative="1" as="geometry">
            <mxPoint x="-1900" y="-463" as="sourcePoint" />
            <mxPoint x="-1459" y="-714" as="targetPoint" />
            <Array as="points" />
          </mxGeometry>
        </mxCell>
        <mxCell id="s0yuuBE6nrt6rCImfh5s-2" value="" style="shape=link;html=1;rounded=0;fontSize=12;startSize=8;endSize=8;curved=1;exitX=0.963;exitY=0.52;exitDx=0;exitDy=0;exitPerimeter=0;entryX=0.021;entryY=0.567;entryDx=0;entryDy=0;entryPerimeter=0;" edge="1" parent="1" source="VzKv1CGfVXmQhoCKNYL7-1" target="zpWDgoNKnzF8_VnrEMOg-2">
          <mxGeometry width="100" relative="1" as="geometry">
            <mxPoint x="-2123" y="-683" as="sourcePoint" />
            <mxPoint x="-1682" y="-934" as="targetPoint" />
            <Array as="points" />
          </mxGeometry>
        </mxCell>
        <mxCell id="s0yuuBE6nrt6rCImfh5s-3" value="" style="endArrow=none;html=1;rounded=0;fontSize=12;startSize=8;endSize=8;curved=1;entryX=0.01;entryY=0.933;entryDx=0;entryDy=0;entryPerimeter=0;" edge="1" parent="1" target="GMT3HpUt6zNehc-nURSw-2">
          <mxGeometry width="50" height="50" relative="1" as="geometry">
            <mxPoint x="-2191" y="-1309" as="sourcePoint" />
            <mxPoint x="-1565.2839999999997" y="-1300.4320000000002" as="targetPoint" />
          </mxGeometry>
        </mxCell>
        <mxCell id="s0yuuBE6nrt6rCImfh5s-4" value="" style="endArrow=none;html=1;rounded=0;fontSize=12;startSize=8;endSize=8;curved=1;exitX=0.53;exitY=0.018;exitDx=0;exitDy=0;exitPerimeter=0;" edge="1" parent="1">
          <mxGeometry width="50" height="50" relative="1" as="geometry">
            <mxPoint x="-2191.23" y="-980.9119999999998" as="sourcePoint" />
            <mxPoint x="-2191" y="-1303" as="targetPoint" />
            <Array as="points" />
          </mxGeometry>
        </mxCell>
        <mxCell id="-VwbxRubtyLV2IxvxT_U-1" value="Join" style="shape=rhombus;perimeter=rhombusPerimeter;whiteSpace=wrap;html=1;align=center;fontSize=20;fontStyle=1" vertex="1" parent="1">
          <mxGeometry x="-1760" y="-990" width="109" height="116" as="geometry" />
        </mxCell>
        <mxCell id="-VwbxRubtyLV2IxvxT_U-2" value="" style="shape=link;html=1;rounded=0;fontSize=12;startSize=8;endSize=8;curved=1;entryX=-0.001;entryY=0.499;entryDx=0;entryDy=0;entryPerimeter=0;exitX=0.983;exitY=0.506;exitDx=0;exitDy=0;exitPerimeter=0;" edge="1" parent="1" source="-VwbxRubtyLV2IxvxT_U-1" target="CXuL3cobVKBfN0XFa9y7-2">
          <mxGeometry width="100" relative="1" as="geometry">
            <mxPoint x="-1553.0000000000005" y="-926.652" as="sourcePoint" />
            <mxPoint x="-1936" y="-466" as="targetPoint" />
            <Array as="points" />
          </mxGeometry>
        </mxCell>
        <mxCell id="-VwbxRubtyLV2IxvxT_U-3" value="" style="shape=link;html=1;rounded=0;fontSize=12;startSize=8;endSize=8;curved=1;entryX=0.049;entryY=0.538;entryDx=0;entryDy=0;entryPerimeter=0;" edge="1" parent="1" target="-VwbxRubtyLV2IxvxT_U-1">
          <mxGeometry width="100" relative="1" as="geometry">
            <mxPoint x="-1882" y="-928" as="sourcePoint" />
            <mxPoint x="-1843" y="-940" as="targetPoint" />
            <Array as="points" />
          </mxGeometry>
        </mxCell>
        <mxCell id="-M_ZNerCqYYe_poU3aPx-1" value="Assign" style="shape=rhombus;perimeter=rhombusPerimeter;whiteSpace=wrap;html=1;align=center;fontSize=20;fontStyle=1" vertex="1" parent="1">
          <mxGeometry x="-1353" y="-1631" width="109" height="116" as="geometry" />
        </mxCell>
        <mxCell id="-M_ZNerCqYYe_poU3aPx-2" value="" style="shape=link;html=1;rounded=0;fontSize=12;startSize=8;endSize=8;curved=1;exitX=0.518;exitY=0.059;exitDx=0;exitDy=0;exitPerimeter=0;" edge="1" parent="1" source="-M_ZNerCqYYe_poU3aPx-1">
          <mxGeometry width="100" relative="1" as="geometry">
            <mxPoint x="-1290" y="-1483" as="sourcePoint" />
            <mxPoint x="182" y="-1620" as="targetPoint" />
            <Array as="points" />
          </mxGeometry>
        </mxCell>
        <mxCell id="-M_ZNerCqYYe_poU3aPx-3" value="" style="shape=link;html=1;rounded=0;fontSize=12;startSize=8;endSize=8;curved=1;entryX=0.899;entryY=-0.052;entryDx=0;entryDy=0;entryPerimeter=0;exitX=0.486;exitY=1;exitDx=0;exitDy=0;exitPerimeter=0;" edge="1" parent="1" source="-M_ZNerCqYYe_poU3aPx-1" target="GMT3HpUt6zNehc-nURSw-2">
          <mxGeometry width="100" relative="1" as="geometry">
            <mxPoint x="-1317" y="-1466" as="sourcePoint" />
            <mxPoint x="-1146" y="-1467" as="targetPoint" />
            <Array as="points" />
          </mxGeometry>
        </mxCell>
        <mxCell id="-M_ZNerCqYYe_poU3aPx-4" value="" style="shape=link;html=1;rounded=0;fontSize=12;startSize=8;endSize=8;curved=1;entryX=0.152;entryY=0.051;entryDx=0;entryDy=0;entryPerimeter=0;" edge="1" parent="1" target="a_mzHDoUXyQHlvejMDeY-2">
          <mxGeometry width="100" relative="1" as="geometry">
            <mxPoint x="188" y="-1624" as="sourcePoint" />
            <mxPoint x="182" y="-1418.5" as="targetPoint" />
            <Array as="points" />
          </mxGeometry>
        </mxCell>
        <mxCell id="qCEcM_awS7yYyBuJe5dB-1" style="edgeStyle=none;curved=1;rounded=0;orthogonalLoop=1;jettySize=auto;html=1;exitX=0.731;exitY=0.021;exitDx=0;exitDy=0;entryX=0.473;entryY=1.079;entryDx=0;entryDy=0;entryPerimeter=0;fontSize=12;startSize=8;endSize=8;exitPerimeter=0;" edge="1" parent="1" source="CXuL3cobVKBfN0XFa9y7-2" target="geylNeVPSeIZc6jd-_P--3">
          <mxGeometry relative="1" as="geometry">
            <mxPoint x="-1281" y="-973" as="sourcePoint" />
            <mxPoint x="-1236" y="-993" as="targetPoint" />
          </mxGeometry>
        </mxCell>
        <mxCell id="_Ektx0cN4hmEDWiBs41e-1" value="Assign" style="shape=rhombus;perimeter=rhombusPerimeter;whiteSpace=wrap;html=1;align=center;fontSize=20;fontStyle=1" vertex="1" parent="1">
          <mxGeometry x="-1421" y="-1203" width="109" height="116" as="geometry" />
        </mxCell>
        <mxCell id="_Ektx0cN4hmEDWiBs41e-2" value="" style="shape=link;html=1;rounded=0;fontSize=12;startSize=8;endSize=8;curved=1;entryX=0.572;entryY=0.015;entryDx=0;entryDy=0;entryPerimeter=0;exitX=0.502;exitY=0.991;exitDx=0;exitDy=0;exitPerimeter=0;" edge="1" parent="1" source="_Ektx0cN4hmEDWiBs41e-1">
          <mxGeometry width="100" relative="1" as="geometry">
            <mxPoint x="-1364.5240000000003" y="-1104.024" as="sourcePoint" />
            <mxPoint x="-1366.3280000000004" y="-978.5600000000004" as="targetPoint" />
            <Array as="points" />
          </mxGeometry>
        </mxCell>
        <mxCell id="_Ektx0cN4hmEDWiBs41e-3" value="" style="endArrow=none;html=1;rounded=0;fontSize=12;startSize=8;endSize=8;curved=1;entryX=0.514;entryY=0.038;entryDx=0;entryDy=0;entryPerimeter=0;exitX=0.537;exitY=1.009;exitDx=0;exitDy=0;exitPerimeter=0;" edge="1" parent="1" source="GMT3HpUt6zNehc-nURSw-2" target="_Ektx0cN4hmEDWiBs41e-1">
          <mxGeometry width="50" height="50" relative="1" as="geometry">
            <mxPoint x="-1623" y="-1316" as="sourcePoint" />
            <mxPoint x="-890" y="-1316" as="targetPoint" />
          </mxGeometry>
        </mxCell>
        <mxCell id="tv9DkTFjK_xPLvUfcPxo-1" value="Assign" style="shape=rhombus;perimeter=rhombusPerimeter;whiteSpace=wrap;html=1;align=center;fontSize=20;fontStyle=1" vertex="1" parent="1">
          <mxGeometry x="-1005" y="-1409" width="109" height="116" as="geometry" />
        </mxCell>
        <mxCell id="tv9DkTFjK_xPLvUfcPxo-3" value="" style="shape=link;html=1;rounded=0;fontSize=12;startSize=8;endSize=8;curved=1;entryX=0.018;entryY=0.476;entryDx=0;entryDy=0;entryPerimeter=0;exitX=0.981;exitY=0.459;exitDx=0;exitDy=0;exitPerimeter=0;" edge="1" parent="1" source="GMT3HpUt6zNehc-nURSw-2" target="tv9DkTFjK_xPLvUfcPxo-1">
          <mxGeometry width="100" relative="1" as="geometry">
            <mxPoint x="-1155" y="-1369" as="sourcePoint" />
            <mxPoint x="-1008" y="-1369" as="targetPoint" />
            <Array as="points" />
          </mxGeometry>
        </mxCell>
        <mxCell id="tv9DkTFjK_xPLvUfcPxo-4" value="" style="endArrow=none;html=1;rounded=0;fontSize=12;startSize=8;endSize=8;curved=1;entryX=0.015;entryY=0.547;entryDx=0;entryDy=0;entryPerimeter=0;exitX=0.984;exitY=0.513;exitDx=0;exitDy=0;exitPerimeter=0;" edge="1" parent="1" source="tv9DkTFjK_xPLvUfcPxo-1" target="ODyNRs8e1AsLme6WQglQ-1">
          <mxGeometry width="50" height="50" relative="1" as="geometry">
            <mxPoint x="-1537" y="-1309" as="sourcePoint" />
            <mxPoint x="-804" y="-1309" as="targetPoint" />
          </mxGeometry>
        </mxCell>
        <mxCell id="zOhnyo6SksLNc5zoQmeM-1" value="Work" style="shape=rhombus;perimeter=rhombusPerimeter;whiteSpace=wrap;html=1;align=center;fontSize=20;fontStyle=1" vertex="1" parent="1">
          <mxGeometry x="182" y="-1195" width="109" height="116" as="geometry" />
        </mxCell>
        <mxCell id="hc6aWfJFrdRKiIN81X5m-1" value="" style="shape=link;html=1;rounded=0;fontSize=12;startSize=8;endSize=8;curved=1;entryX=0.56;entryY=0.055;entryDx=0;entryDy=0;entryPerimeter=0;exitX=0.478;exitY=1.016;exitDx=0;exitDy=0;exitPerimeter=0;" edge="1" parent="1">
          <mxGeometry width="100" relative="1" as="geometry">
            <mxPoint x="238.1279999999997" y="-1309.464" as="sourcePoint" />
            <mxPoint x="237.03999999999996" y="-1188.62" as="targetPoint" />
            <Array as="points" />
          </mxGeometry>
        </mxCell>
        <mxCell id="hc6aWfJFrdRKiIN81X5m-2" value="" style="shape=link;html=1;rounded=0;fontSize=12;startSize=8;endSize=8;curved=1;entryX=0.523;entryY=0.046;entryDx=0;entryDy=0;entryPerimeter=0;exitX=0.503;exitY=0.988;exitDx=0;exitDy=0;exitPerimeter=0;" edge="1" parent="1" source="zOhnyo6SksLNc5zoQmeM-1" target="w69AwhqZq3hxhUBCGcc7-1">
          <mxGeometry width="100" relative="1" as="geometry">
            <mxPoint x="235" y="-1042" as="sourcePoint" />
            <mxPoint x="234" y="-820" as="targetPoint" />
            <Array as="points" />
          </mxGeometry>
        </mxCell>
        <mxCell id="QQMKhcwgTUekokaGTSLd-1" value="Teach" style="shape=rhombus;perimeter=rhombusPerimeter;whiteSpace=wrap;html=1;align=center;fontSize=20;fontStyle=1" vertex="1" parent="1">
          <mxGeometry x="-243" y="-1188" width="109" height="116" as="geometry" />
        </mxCell>
        <mxCell id="QQMKhcwgTUekokaGTSLd-2" value="" style="endArrow=none;html=1;rounded=0;fontSize=12;startSize=8;endSize=8;curved=1;entryX=0.043;entryY=0.445;entryDx=0;entryDy=0;entryPerimeter=0;exitX=0.975;exitY=0.979;exitDx=0;exitDy=0;exitPerimeter=0;" edge="1" parent="1" source="ODyNRs8e1AsLme6WQglQ-1" target="QQMKhcwgTUekokaGTSLd-1">
          <mxGeometry width="50" height="50" relative="1" as="geometry">
            <mxPoint x="-283" y="-1261" as="sourcePoint" />
            <mxPoint x="23" y="-1261" as="targetPoint" />
          </mxGeometry>
        </mxCell>
        <mxCell id="QQMKhcwgTUekokaGTSLd-3" value="" style="endArrow=none;html=1;rounded=0;fontSize=12;startSize=8;endSize=8;curved=1;exitX=1.009;exitY=0.5;exitDx=0;exitDy=0;exitPerimeter=0;" edge="1" parent="1" source="QQMKhcwgTUekokaGTSLd-1">
          <mxGeometry width="50" height="50" relative="1" as="geometry">
            <mxPoint x="-65" y="-1113" as="sourcePoint" />
            <mxPoint x="142" y="-965" as="targetPoint" />
          </mxGeometry>
        </mxCell>
        <mxCell id="jnng69VqNIQBXiWKUX98-1" value="Create" style="shape=rhombus;perimeter=rhombusPerimeter;whiteSpace=wrap;html=1;align=center;fontSize=20;fontStyle=1" vertex="1" parent="1">
          <mxGeometry x="-172" y="-986" width="109" height="116" as="geometry" />
        </mxCell>
        <mxCell id="6VWu-3H_zVb0FFHjOQ2Y-1" value="" style="endArrow=none;html=1;rounded=0;fontSize=12;startSize=8;endSize=8;curved=1;entryX=0.03;entryY=0.365;entryDx=0;entryDy=0;entryPerimeter=0;" edge="1" parent="1" source="jnng69VqNIQBXiWKUX98-1" target="w69AwhqZq3hxhUBCGcc7-1">
          <mxGeometry width="50" height="50" relative="1" as="geometry">
            <mxPoint x="-40" y="-1071" as="sourcePoint" />
            <mxPoint x="235" y="-906" as="targetPoint" />
          </mxGeometry>
        </mxCell>
        <mxCell id="6VWu-3H_zVb0FFHjOQ2Y-2" value="" style="shape=link;html=1;rounded=0;fontSize=12;startSize=8;endSize=8;curved=1;exitX=0.998;exitY=0.479;exitDx=0;exitDy=0;exitPerimeter=0;entryX=0.064;entryY=0.529;entryDx=0;entryDy=0;entryPerimeter=0;" edge="1" parent="1" source="guL3t1uDuacnGlXDYMYO-1" target="jnng69VqNIQBXiWKUX98-1">
          <mxGeometry width="100" relative="1" as="geometry">
            <mxPoint x="-412" y="-930" as="sourcePoint" />
            <mxPoint x="-187" y="-929" as="targetPoint" />
            <Array as="points" />
          </mxGeometry>
        </mxCell>
        <mxCell id="cznx5Bf1_dtWOLQCYXmd-1" value="Assign" style="shape=rhombus;perimeter=rhombusPerimeter;whiteSpace=wrap;html=1;align=center;fontSize=20;fontStyle=1" vertex="1" parent="1">
          <mxGeometry x="-537" y="-1237" width="109" height="116" as="geometry" />
        </mxCell>
        <mxCell id="5v6GH7G3RXqtbyS1d4xO-1" value="" style="endArrow=none;html=1;rounded=0;fontSize=12;startSize=8;endSize=8;curved=1;entryX=0.508;entryY=-0.011;entryDx=0;entryDy=0;entryPerimeter=0;" edge="1" parent="1" target="cznx5Bf1_dtWOLQCYXmd-1">
          <mxGeometry width="50" height="50" relative="1" as="geometry">
            <mxPoint x="-482" y="-1313" as="sourcePoint" />
            <mxPoint x="-175" y="-1076" as="targetPoint" />
          </mxGeometry>
        </mxCell>
        <mxCell id="5v6GH7G3RXqtbyS1d4xO-2" value="" style="shape=link;html=1;rounded=0;fontSize=12;startSize=8;endSize=8;curved=1;exitX=0.492;exitY=0.966;exitDx=0;exitDy=0;exitPerimeter=0;entryX=0.6;entryY=0.01;entryDx=0;entryDy=0;entryPerimeter=0;" edge="1" parent="1" source="cznx5Bf1_dtWOLQCYXmd-1" target="guL3t1uDuacnGlXDYMYO-1">
          <mxGeometry width="100" relative="1" as="geometry">
            <mxPoint x="-479.67199999999957" y="-1038" as="sourcePoint" />
            <mxPoint x="-440" y="-971" as="targetPoint" />
            <Array as="points" />
          </mxGeometry>
        </mxCell>
        <mxCell id="g9JezYZB1jWMzZC7w5P_-1" value="Assign" style="shape=rhombus;perimeter=rhombusPerimeter;whiteSpace=wrap;html=1;align=center;fontSize=20;fontStyle=1" vertex="1" parent="1">
          <mxGeometry x="-520" y="-326" width="109" height="116" as="geometry" />
        </mxCell>
        <mxCell id="UfY7mIChMmx0IgMXO4wv-1" value="Contain" style="shape=rhombus;perimeter=rhombusPerimeter;whiteSpace=wrap;html=1;align=center;fontSize=20;fontStyle=1" vertex="1" parent="1">
          <mxGeometry x="-641" y="-644" width="109" height="116" as="geometry" />
        </mxCell>
        <mxCell id="tufIOP3NHS56II1neOlS-1" value="" style="shape=link;html=1;rounded=0;fontSize=12;startSize=8;endSize=8;curved=1;exitX=0.032;exitY=0.948;exitDx=0;exitDy=0;exitPerimeter=0;entryX=0.514;entryY=0.037;entryDx=0;entryDy=0;entryPerimeter=0;" edge="1" parent="1">
          <mxGeometry width="100" relative="1" as="geometry">
            <mxPoint x="-583.3680000000004" y="-876.9920000000002" as="sourcePoint" />
            <mxPoint x="-584.9740000000002" y="-639.7080000000001" as="targetPoint" />
            <Array as="points" />
          </mxGeometry>
        </mxCell>
        <mxCell id="tufIOP3NHS56II1neOlS-2" value="" style="endArrow=none;html=1;rounded=0;fontSize=12;startSize=8;endSize=8;curved=1;entryX=0.015;entryY=0.523;entryDx=0;entryDy=0;entryPerimeter=0;exitX=1.002;exitY=0.503;exitDx=0;exitDy=0;exitPerimeter=0;" edge="1" parent="1" source="2UCn0vdWUT8egZPG9wR1-1" target="UfY7mIChMmx0IgMXO4wv-1">
          <mxGeometry width="50" height="50" relative="1" as="geometry">
            <mxPoint x="-778" y="-604" as="sourcePoint" />
            <mxPoint x="-472" y="-604" as="targetPoint" />
          </mxGeometry>
        </mxCell>
        <mxCell id="so671Y_gzaRr9JHFqp2--1" value="" style="shape=link;html=1;rounded=0;fontSize=12;startSize=8;endSize=8;curved=1;entryX=0.61;entryY=1.017;entryDx=0;entryDy=0;entryPerimeter=0;exitX=0.505;exitY=0.04;exitDx=0;exitDy=0;exitPerimeter=0;" edge="1" parent="1" source="g9JezYZB1jWMzZC7w5P_-1">
          <mxGeometry width="100" relative="1" as="geometry">
            <mxPoint x="-459.9549999999999" y="-346.33200000000033" as="sourcePoint" />
            <mxPoint x="-469.6399999999994" y="-871.3680000000004" as="targetPoint" />
            <Array as="points" />
          </mxGeometry>
        </mxCell>
        <mxCell id="so671Y_gzaRr9JHFqp2--2" value="" style="shape=link;html=1;rounded=0;fontSize=12;startSize=8;endSize=8;curved=1;" edge="1" parent="1" target="g9JezYZB1jWMzZC7w5P_-1">
          <mxGeometry width="100" relative="1" as="geometry">
            <mxPoint x="-2262" y="-268" as="sourcePoint" />
            <mxPoint x="369" y="-227" as="targetPoint" />
            <Array as="points" />
          </mxGeometry>
        </mxCell>
        <mxCell id="so671Y_gzaRr9JHFqp2--3" value="" style="shape=link;html=1;rounded=0;fontSize=12;startSize=8;endSize=8;curved=1;" edge="1" parent="1">
          <mxGeometry width="100" relative="1" as="geometry">
            <mxPoint x="-2257" y="-1333" as="sourcePoint" />
            <mxPoint x="-2257" y="-275" as="targetPoint" />
            <Array as="points" />
          </mxGeometry>
        </mxCell>
        <mxCell id="so671Y_gzaRr9JHFqp2--4" value="" style="shape=link;html=1;rounded=0;fontSize=12;startSize=8;endSize=8;curved=1;entryX=-0.003;entryY=0.618;entryDx=0;entryDy=0;entryPerimeter=0;" edge="1" parent="1" target="GMT3HpUt6zNehc-nURSw-2">
          <mxGeometry width="100" relative="1" as="geometry">
            <mxPoint x="-2255" y="-1337" as="sourcePoint" />
            <mxPoint x="-1585" y="-1348" as="targetPoint" />
            <Array as="points" />
          </mxGeometry>
        </mxCell>
        <mxCell id="0yzFA9gfOO5-W9tLfYOg-1" value="Assign" style="shape=rhombus;perimeter=rhombusPerimeter;whiteSpace=wrap;html=1;align=center;fontSize=20;fontStyle=1" vertex="1" parent="1">
          <mxGeometry x="-1014" y="-977" width="109" height="116" as="geometry" />
        </mxCell>
        <mxCell id="0yzFA9gfOO5-W9tLfYOg-2" value="" style="shape=link;html=1;rounded=0;fontSize=12;startSize=8;endSize=8;curved=1;entryX=0.023;entryY=0.601;entryDx=0;entryDy=0;entryPerimeter=0;exitX=0.982;exitY=0.494;exitDx=0;exitDy=0;exitPerimeter=0;" edge="1" parent="1" source="0yzFA9gfOO5-W9tLfYOg-1">
          <mxGeometry width="100" relative="1" as="geometry">
            <mxPoint x="-832" y="-919" as="sourcePoint" />
            <mxPoint x="-584.9519999999993" y="-919.3040000000001" as="targetPoint" />
            <Array as="points" />
          </mxGeometry>
        </mxCell>
        <mxCell id="0yzFA9gfOO5-W9tLfYOg-3" value="" style="endArrow=none;html=1;rounded=0;fontSize=12;startSize=8;endSize=8;curved=1;entryX=0.107;entryY=0.555;entryDx=0;entryDy=0;entryPerimeter=0;exitX=0.987;exitY=0.715;exitDx=0;exitDy=0;exitPerimeter=0;" edge="1" parent="1" source="CXuL3cobVKBfN0XFa9y7-2" target="0yzFA9gfOO5-W9tLfYOg-1">
          <mxGeometry width="50" height="50" relative="1" as="geometry">
            <mxPoint x="-1178" y="-911" as="sourcePoint" />
            <mxPoint x="-872" y="-911" as="targetPoint" />
          </mxGeometry>
        </mxCell>
        <mxCell id="0yzFA9gfOO5-W9tLfYOg-4" value="" style="endArrow=none;html=1;rounded=0;fontSize=12;startSize=8;endSize=8;curved=1;entryX=0.697;entryY=0.024;entryDx=0;entryDy=0;entryPerimeter=0;exitX=0.459;exitY=0.983;exitDx=0;exitDy=0;exitPerimeter=0;" edge="1" parent="1" source="0yzFA9gfOO5-W9tLfYOg-1" target="2UCn0vdWUT8egZPG9wR1-1">
          <mxGeometry width="50" height="50" relative="1" as="geometry">
            <mxPoint x="-1003" y="-826" as="sourcePoint" />
            <mxPoint x="-697" y="-826" as="targetPoint" />
          </mxGeometry>
        </mxCell>
        <mxCell id="lEJ-E7vIVbBsktUBhEfU-1" value="Degree" style="ellipse;whiteSpace=wrap;html=1;align=center;fontSize=20;fontStyle=1" vertex="1" parent="1">
          <mxGeometry x="-981" y="-1106" width="73.5" height="60" as="geometry" />
        </mxCell>
        <mxCell id="lEJ-E7vIVbBsktUBhEfU-2" value="Answer" style="ellipse;whiteSpace=wrap;html=1;align=center;fontSize=20;fontStyle=1" vertex="1" parent="1">
          <mxGeometry x="-916" y="-1034" width="73.5" height="60" as="geometry" />
        </mxCell>
        <mxCell id="lEJ-E7vIVbBsktUBhEfU-3" value="Is_Correct" style="ellipse;whiteSpace=wrap;html=1;align=center;fontSize=20;fontStyle=1" vertex="1" parent="1">
          <mxGeometry x="-1112" y="-1087" width="120.5" height="60" as="geometry" />
        </mxCell>
        <mxCell id="lEJ-E7vIVbBsktUBhEfU-4" style="edgeStyle=none;curved=1;rounded=0;orthogonalLoop=1;jettySize=auto;html=1;entryX=0.485;entryY=1.022;entryDx=0;entryDy=0;fontSize=12;startSize=8;endSize=8;entryPerimeter=0;exitX=0.541;exitY=0.009;exitDx=0;exitDy=0;exitPerimeter=0;" edge="1" parent="1" source="0yzFA9gfOO5-W9tLfYOg-1" target="lEJ-E7vIVbBsktUBhEfU-1">
          <mxGeometry relative="1" as="geometry">
            <mxPoint x="-928" y="-970" as="sourcePoint" />
            <mxPoint x="-970" y="-1016" as="targetPoint" />
          </mxGeometry>
        </mxCell>
        <mxCell id="lEJ-E7vIVbBsktUBhEfU-5" style="edgeStyle=none;curved=1;rounded=0;orthogonalLoop=1;jettySize=auto;html=1;entryX=0.395;entryY=0.961;entryDx=0;entryDy=0;fontSize=12;startSize=8;endSize=8;entryPerimeter=0;exitX=0.783;exitY=0.293;exitDx=0;exitDy=0;exitPerimeter=0;" edge="1" parent="1" source="0yzFA9gfOO5-W9tLfYOg-1" target="lEJ-E7vIVbBsktUBhEfU-2">
          <mxGeometry relative="1" as="geometry">
            <mxPoint x="-875" y="-927" as="sourcePoint" />
            <mxPoint x="-917" y="-973" as="targetPoint" />
          </mxGeometry>
        </mxCell>
        <mxCell id="lEJ-E7vIVbBsktUBhEfU-6" style="edgeStyle=none;curved=1;rounded=0;orthogonalLoop=1;jettySize=auto;html=1;entryX=0.733;entryY=0.956;entryDx=0;entryDy=0;fontSize=12;startSize=8;endSize=8;entryPerimeter=0;exitX=0.355;exitY=0.164;exitDx=0;exitDy=0;exitPerimeter=0;" edge="1" parent="1" source="0yzFA9gfOO5-W9tLfYOg-1" target="lEJ-E7vIVbBsktUBhEfU-3">
          <mxGeometry relative="1" as="geometry">
            <mxPoint x="-985" y="-962" as="sourcePoint" />
            <mxPoint x="-1027" y="-1008" as="targetPoint" />
          </mxGeometry>
        </mxCell>
        <mxCell id="lEJ-E7vIVbBsktUBhEfU-7" value="" style="shape=link;html=1;rounded=0;fontSize=12;startSize=8;endSize=8;curved=1;entryX=0.023;entryY=0.08;entryDx=0;entryDy=0;entryPerimeter=0;" edge="1" parent="1" target="guL3t1uDuacnGlXDYMYO-1">
          <mxGeometry width="100" relative="1" as="geometry">
            <mxPoint x="-585" y="-1258" as="sourcePoint" />
            <mxPoint x="-603" y="-947.7159999999999" as="targetPoint" />
            <Array as="points" />
          </mxGeometry>
        </mxCell>
        <mxCell id="lEJ-E7vIVbBsktUBhEfU-8" value="" style="shape=link;html=1;rounded=0;fontSize=12;startSize=8;endSize=8;curved=1;" edge="1" parent="1">
          <mxGeometry width="100" relative="1" as="geometry">
            <mxPoint x="-580" y="-1253" as="sourcePoint" />
            <mxPoint x="-2008" y="-1248" as="targetPoint" />
            <Array as="points" />
          </mxGeometry>
        </mxCell>
        <mxCell id="lEJ-E7vIVbBsktUBhEfU-9" value="Assign" style="shape=rhombus;perimeter=rhombusPerimeter;whiteSpace=wrap;html=1;align=center;fontSize=20;fontStyle=1" vertex="1" parent="1">
          <mxGeometry x="-2054" y="-1174" width="109" height="116" as="geometry" />
        </mxCell>
        <mxCell id="lEJ-E7vIVbBsktUBhEfU-10" value="" style="shape=link;html=1;rounded=0;fontSize=12;startSize=8;endSize=8;curved=1;entryX=0.468;entryY=0.023;entryDx=0;entryDy=0;entryPerimeter=0;" edge="1" parent="1" target="lEJ-E7vIVbBsktUBhEfU-9">
          <mxGeometry width="100" relative="1" as="geometry">
            <mxPoint x="-2003" y="-1248" as="sourcePoint" />
            <mxPoint x="-1924" y="-1211" as="targetPoint" />
            <Array as="points" />
          </mxGeometry>
        </mxCell>
        <mxCell id="lEJ-E7vIVbBsktUBhEfU-12" value="" style="shape=link;html=1;rounded=0;fontSize=12;startSize=8;endSize=8;curved=1;entryX=0.309;entryY=-0.01;entryDx=0;entryDy=0;entryPerimeter=0;exitX=0.495;exitY=0.971;exitDx=0;exitDy=0;exitPerimeter=0;" edge="1" parent="1" source="lEJ-E7vIVbBsktUBhEfU-9" target="zpWDgoNKnzF8_VnrEMOg-2">
          <mxGeometry width="100" relative="1" as="geometry">
            <mxPoint x="-2012" y="-1048" as="sourcePoint" />
            <mxPoint x="-2012" y="-971" as="targetPoint" />
            <Array as="points" />
          </mxGeometry>
        </mxCell>
        <mxCell id="Am6CPzT-HwWd9Ei8RAbW-1" value="&lt;font&gt;M&lt;/font&gt;" style="ellipse;whiteSpace=wrap;html=1;align=center;fontSize=15;fontStyle=1" vertex="1" parent="1">
          <mxGeometry x="-2149.5" y="-969" width="41" height="39" as="geometry" />
        </mxCell>
        <mxCell id="Am6CPzT-HwWd9Ei8RAbW-2" value="&lt;font&gt;M&lt;/font&gt;" style="ellipse;whiteSpace=wrap;html=1;align=center;fontSize=15;fontStyle=1" vertex="1" parent="1">
          <mxGeometry x="-2237" y="-1013" width="41" height="39" as="geometry" />
        </mxCell>
        <mxCell id="Am6CPzT-HwWd9Ei8RAbW-3" value="&lt;font&gt;N&lt;/font&gt;" style="ellipse;whiteSpace=wrap;html=1;align=center;fontSize=15;fontStyle=1" vertex="1" parent="1">
          <mxGeometry x="-2245" y="-871" width="41" height="39" as="geometry" />
        </mxCell>
        <mxCell id="Am6CPzT-HwWd9Ei8RAbW-4" value="&lt;font&gt;M&lt;/font&gt;" style="ellipse;whiteSpace=wrap;html=1;align=center;fontSize=15;fontStyle=1" vertex="1" parent="1">
          <mxGeometry x="-2048" y="-1213" width="41" height="39" as="geometry" />
        </mxCell>
        <mxCell id="Am6CPzT-HwWd9Ei8RAbW-5" value="&lt;font&gt;1&lt;/font&gt;" style="ellipse;whiteSpace=wrap;html=1;align=center;fontSize=15;fontStyle=1" vertex="1" parent="1">
          <mxGeometry x="-2063.5" y="-1079" width="41" height="39" as="geometry" />
        </mxCell>
        <mxCell id="Am6CPzT-HwWd9Ei8RAbW-6" value="&lt;font&gt;1&lt;/font&gt;" style="ellipse;whiteSpace=wrap;html=1;align=center;fontSize=15;fontStyle=1" vertex="1" parent="1">
          <mxGeometry x="-1792" y="-986" width="41" height="39" as="geometry" />
        </mxCell>
        <mxCell id="Am6CPzT-HwWd9Ei8RAbW-7" value="&lt;font&gt;M&lt;/font&gt;" style="ellipse;whiteSpace=wrap;html=1;align=center;fontSize=15;fontStyle=1" vertex="1" parent="1">
          <mxGeometry x="-1663" y="-990" width="41" height="39" as="geometry" />
        </mxCell>
        <mxCell id="v9DCiaO3q56sn44Bv5YN-1" value="&lt;font&gt;1&lt;/font&gt;" style="ellipse;whiteSpace=wrap;html=1;align=center;fontSize=15;fontStyle=1" vertex="1" parent="1">
          <mxGeometry x="-628" y="-436" width="41" height="39" as="geometry" />
        </mxCell>
        <mxCell id="v9DCiaO3q56sn44Bv5YN-2" value="&lt;font&gt;1&lt;/font&gt;" style="ellipse;whiteSpace=wrap;html=1;align=center;fontSize=15;fontStyle=1" vertex="1" parent="1">
          <mxGeometry x="-2027" y="-536" width="41" height="39" as="geometry" />
        </mxCell>
        <mxCell id="v9DCiaO3q56sn44Bv5YN-3" value="&lt;font&gt;M&lt;/font&gt;" style="ellipse;whiteSpace=wrap;html=1;align=center;fontSize=15;fontStyle=1" vertex="1" parent="1">
          <mxGeometry x="-2017" y="-668" width="41" height="39" as="geometry" />
        </mxCell>
        <mxCell id="v9DCiaO3q56sn44Bv5YN-4" value="&lt;font&gt;M&lt;/font&gt;" style="ellipse;whiteSpace=wrap;html=1;align=center;fontSize=15;fontStyle=1" vertex="1" parent="1">
          <mxGeometry x="-581" y="-523" width="41" height="39" as="geometry" />
        </mxCell>
        <mxCell id="lYVeIDo4CgsWPdrOBPPU-1" value="&lt;font&gt;M&lt;/font&gt;" style="ellipse;whiteSpace=wrap;html=1;align=center;fontSize=15;fontStyle=1" vertex="1" parent="1">
          <mxGeometry x="-903" y="-1409" width="41" height="39" as="geometry" />
        </mxCell>
        <mxCell id="lYVeIDo4CgsWPdrOBPPU-2" value="&lt;font&gt;N&lt;/font&gt;" style="ellipse;whiteSpace=wrap;html=1;align=center;fontSize=15;fontStyle=1" vertex="1" parent="1">
          <mxGeometry x="-1043" y="-1409" width="41" height="39" as="geometry" />
        </mxCell>
        <mxCell id="lYVeIDo4CgsWPdrOBPPU-3" value="&lt;font&gt;M&lt;/font&gt;" style="ellipse;whiteSpace=wrap;html=1;align=center;fontSize=15;fontStyle=1" vertex="1" parent="1">
          <mxGeometry x="-1286" y="-1514.5" width="41" height="39" as="geometry" />
        </mxCell>
        <mxCell id="lYVeIDo4CgsWPdrOBPPU-4" value="&lt;font&gt;1&lt;/font&gt;" style="ellipse;whiteSpace=wrap;html=1;align=center;fontSize=15;fontStyle=1" vertex="1" parent="1">
          <mxGeometry x="-1237.5" y="-1612" width="41" height="39" as="geometry" />
        </mxCell>
        <mxCell id="lYVeIDo4CgsWPdrOBPPU-5" value="&lt;font&gt;M&lt;/font&gt;" style="ellipse;whiteSpace=wrap;html=1;align=center;fontSize=15;fontStyle=1" vertex="1" parent="1">
          <mxGeometry x="-513" y="-358" width="41" height="39" as="geometry" />
        </mxCell>
        <mxCell id="lYVeIDo4CgsWPdrOBPPU-6" value="&lt;font&gt;1&lt;/font&gt;" style="ellipse;whiteSpace=wrap;html=1;align=center;fontSize=15;fontStyle=1" vertex="1" parent="1">
          <mxGeometry x="-563" y="-326" width="41" height="39" as="geometry" />
        </mxCell>
        <mxCell id="BpDAuHFQC7ySdwxlpzSX-1" value="&lt;font&gt;M&lt;/font&gt;" style="ellipse;whiteSpace=wrap;html=1;align=center;fontSize=15;fontStyle=1" vertex="1" parent="1">
          <mxGeometry x="-677" y="-635" width="41" height="39" as="geometry" />
        </mxCell>
        <mxCell id="BpDAuHFQC7ySdwxlpzSX-2" value="&lt;font&gt;N&lt;/font&gt;" style="ellipse;whiteSpace=wrap;html=1;align=center;fontSize=15;fontStyle=1" vertex="1" parent="1">
          <mxGeometry x="-636" y="-696" width="41" height="39" as="geometry" />
        </mxCell>
        <mxCell id="BpDAuHFQC7ySdwxlpzSX-3" value="&lt;font&gt;1&lt;/font&gt;" style="ellipse;whiteSpace=wrap;html=1;align=center;fontSize=15;fontStyle=1" vertex="1" parent="1">
          <mxGeometry x="-1417" y="-1229" width="41" height="39" as="geometry" />
        </mxCell>
        <mxCell id="BpDAuHFQC7ySdwxlpzSX-4" value="&lt;font&gt;M&lt;/font&gt;" style="ellipse;whiteSpace=wrap;html=1;align=center;fontSize=15;fontStyle=1" vertex="1" parent="1">
          <mxGeometry x="-1418" y="-1098" width="41" height="39" as="geometry" />
        </mxCell>
        <mxCell id="7DTSwHDqOChak2WhOHlR-1" value="&lt;font&gt;1&lt;/font&gt;" style="ellipse;whiteSpace=wrap;html=1;align=center;fontSize=15;fontStyle=1" vertex="1" parent="1">
          <mxGeometry x="242" y="-1234" width="41" height="39" as="geometry" />
        </mxCell>
        <mxCell id="7DTSwHDqOChak2WhOHlR-2" value="&lt;font&gt;M&lt;/font&gt;" style="ellipse;whiteSpace=wrap;html=1;align=center;fontSize=15;fontStyle=1" vertex="1" parent="1">
          <mxGeometry x="247" y="-1083.5" width="41" height="39" as="geometry" />
        </mxCell>
        <mxCell id="1PpzIYRCTFu__u7xBuau-1" value="&lt;font&gt;1&lt;/font&gt;" style="ellipse;whiteSpace=wrap;html=1;align=center;fontSize=15;fontStyle=1" vertex="1" parent="1">
          <mxGeometry x="-63" y="-977" width="41" height="39" as="geometry" />
        </mxCell>
        <mxCell id="1PpzIYRCTFu__u7xBuau-2" value="&lt;font&gt;M&lt;/font&gt;" style="ellipse;whiteSpace=wrap;html=1;align=center;fontSize=15;fontStyle=1" vertex="1" parent="1">
          <mxGeometry x="-213" y="-979" width="41" height="39" as="geometry" />
        </mxCell>
        <mxCell id="1PpzIYRCTFu__u7xBuau-3" value="&lt;font&gt;M&lt;/font&gt;" style="ellipse;whiteSpace=wrap;html=1;align=center;fontSize=15;fontStyle=1" vertex="1" parent="1">
          <mxGeometry x="-123" y="-1168" width="41" height="39" as="geometry" />
        </mxCell>
        <mxCell id="1PpzIYRCTFu__u7xBuau-4" value="&lt;font&gt;N&lt;/font&gt;" style="ellipse;whiteSpace=wrap;html=1;align=center;fontSize=15;fontStyle=1" vertex="1" parent="1">
          <mxGeometry x="-258" y="-1198.5" width="41" height="39" as="geometry" />
        </mxCell>
        <mxCell id="SImUqpMtEQ-c-_FBytOi-1" value="&lt;font&gt;M&lt;/font&gt;" style="ellipse;whiteSpace=wrap;html=1;align=center;fontSize=15;fontStyle=1" vertex="1" parent="1">
          <mxGeometry x="-469" y="-1129" width="41" height="39" as="geometry" />
        </mxCell>
        <mxCell id="SImUqpMtEQ-c-_FBytOi-2" value="&lt;font&gt;1&lt;/font&gt;" style="ellipse;whiteSpace=wrap;html=1;align=center;fontSize=15;fontStyle=1" vertex="1" parent="1">
          <mxGeometry x="-469" y="-1265" width="41" height="39" as="geometry" />
        </mxCell>
        <mxCell id="PmGDA0VEs3gUtO5_Fgdq-9" value="" style="endArrow=none;html=1;rounded=0;fontSize=12;startSize=8;endSize=8;curved=1;entryX=0.015;entryY=0.547;entryDx=0;entryDy=0;entryPerimeter=0;" edge="1" parent="1">
          <mxGeometry width="50" height="50" relative="1" as="geometry">
            <mxPoint x="-770" y="-1323" as="sourcePoint" />
            <mxPoint x="-595" y="-1323" as="targetPoint" />
          </mxGeometry>
        </mxCell>
        <mxCell id="PmGDA0VEs3gUtO5_Fgdq-10" value="" style="endArrow=none;html=1;rounded=0;fontSize=12;startSize=8;endSize=8;curved=1;exitX=0.517;exitY=0.075;exitDx=0;exitDy=0;exitPerimeter=0;" edge="1" parent="1" source="PmGDA0VEs3gUtO5_Fgdq-11">
          <mxGeometry width="50" height="50" relative="1" as="geometry">
            <mxPoint x="-769" y="-823" as="sourcePoint" />
            <mxPoint x="-769" y="-1323" as="targetPoint" />
          </mxGeometry>
        </mxCell>
        <mxCell id="PmGDA0VEs3gUtO5_Fgdq-11" value="Has" style="shape=rhombus;perimeter=rhombusPerimeter;whiteSpace=wrap;html=1;align=center;fontSize=20;fontStyle=1" vertex="1" parent="1">
          <mxGeometry x="-823" y="-815" width="109" height="116" as="geometry" />
        </mxCell>
        <mxCell id="PmGDA0VEs3gUtO5_Fgdq-12" value="" style="shape=link;html=1;rounded=0;fontSize=12;startSize=8;endSize=8;curved=1;entryX=1;entryY=0.146;entryDx=0;entryDy=0;entryPerimeter=0;exitX=0.468;exitY=0.991;exitDx=0;exitDy=0;exitPerimeter=0;" edge="1" parent="1" source="PmGDA0VEs3gUtO5_Fgdq-11" target="2UCn0vdWUT8egZPG9wR1-1">
          <mxGeometry width="100" relative="1" as="geometry">
            <mxPoint x="-885" y="-694" as="sourcePoint" />
            <mxPoint x="-694" y="-695" as="targetPoint" />
            <Array as="points" />
          </mxGeometry>
        </mxCell>
        <mxCell id="_dYOIZ9qRsuYU3WPaKEW-1" value="&lt;font&gt;M&lt;/font&gt;" style="ellipse;whiteSpace=wrap;html=1;align=center;fontSize=15;fontStyle=1" vertex="1" parent="1">
          <mxGeometry x="-842.5" y="-731.5" width="41" height="39" as="geometry" />
        </mxCell>
        <mxCell id="_dYOIZ9qRsuYU3WPaKEW-2" value="&lt;font&gt;1&lt;/font&gt;" style="ellipse;whiteSpace=wrap;html=1;align=center;fontSize=15;fontStyle=1" vertex="1" parent="1">
          <mxGeometry x="-818" y="-845" width="41" height="39" as="geometry" />
        </mxCell>
        <mxCell id="bxyFuqgFk3c1MlRdrIXY-1" value="&lt;font&gt;M&lt;/font&gt;" style="ellipse;whiteSpace=wrap;html=1;align=center;fontSize=15;fontStyle=1" vertex="1" parent="1">
          <mxGeometry x="-1057" y="-959" width="41" height="39" as="geometry" />
        </mxCell>
        <mxCell id="bxyFuqgFk3c1MlRdrIXY-2" value="&lt;font&gt;M&lt;/font&gt;" style="ellipse;whiteSpace=wrap;html=1;align=center;fontSize=15;fontStyle=1" vertex="1" parent="1">
          <mxGeometry x="-1016" y="-878" width="41" height="39" as="geometry" />
        </mxCell>
        <mxCell id="bxyFuqgFk3c1MlRdrIXY-3" value="&lt;font&gt;N&lt;/font&gt;" style="ellipse;whiteSpace=wrap;html=1;align=center;fontSize=15;fontStyle=1" vertex="1" parent="1">
          <mxGeometry x="-910" y="-906" width="41" height="39" as="geometry" />
        </mxCell>
      </root>
    </mxGraphModel>
  </diagram>
</mxfile>
